<?xml version="1.0" encoding="UTF-8"?>
<!DOCTYPE svg PUBLIC "-//W3C//DTD SVG 1.1//EN" "http://www.w3.org/Graphics/SVG/1.1/DTD/svg11.dtd">
<!-- Creator: CorelDRAW 2020 (64-Bit) -->
<svg xmlns="http://www.w3.org/2000/svg" xml:space="preserve" width="297mm" height="210mm" version="1.1" style="shape-rendering:geometricPrecision; text-rendering:geometricPrecision; image-rendering:optimizeQuality; fill-rule:evenodd; clip-rule:evenodd"
viewBox="0 0 29700 21000"
 xmlns:xlink="http://www.w3.org/1999/xlink"
 xmlns:xodm="http://www.corel.com/coreldraw/odm/2003">
 <defs>
  <style type="text/css">
   <![CDATA[
    .fil0 {fill:#0E1011}
    .fil8 {fill:#323536}
    .fil4 {fill:#46494A}
    .fil2 {fill:#5B5E61}
    .fil1 {fill:#75797A}
    .fil3 {fill:#86898B}
    .fil7 {fill:#969898}
    .fil6 {fill:#B61C18}
    .fil5 {fill:#BCBBBB}
    .fil9 {fill:#CBCBCB}
   ]]>
  </style>
 </defs>
 <g id="Capa_x0020_1">
  <metadata id="CorelCorpID_0Corel-Layer"/>
  <g id="_2542939311040">
   <polygon class="fil0" points="14447.67,8862.66 28417.87,8862.66 28417.87,219.6 14447.67,219.6 "/>
   <g>
    <path class="fil1" d="M17232.8 4344.05l26.63 2.04c6.58,43.87 3.66,16.21 12.16,26.31 20.4,24.22 -8.34,-11.05 7.59,6.72l152.1 226.38c6.81,9.63 9.2,16.74 16.41,27.52l50.72 65.5c19.04,23.07 -11.39,10.78 25.2,20.97 1.27,-1.72 2.47,-6.83 2.9,-5.72l14.06 -37.7c23.35,9.14 4.11,7.73 36.24,14.73 1.64,-123.19 -25.81,-62.17 -22.81,-118.87 1.47,-27.79 37.47,-61.91 59.45,-77.25 50.42,-35.23 73.82,-74.92 100.6,-111.58 15.24,-20.86 -2.55,-5.01 27.34,-10.88l15.92 -4.7c-13.87,-12.55 -15.58,-12.57 -24.97,-33.98l-100.03 -147.85c-8.53,-9.76 -6.02,-5.44 -14.29,-14.69 -39.83,-44.65 -101.01,-158.28 -176.41,-246.5l-84.48 -104.39c-20.05,-21.63 -16.92,-15.07 -24.1,-49.35 -6.57,-6.93 -44.5,-68.23 -48.38,-83.21 -29.61,-114.46 69.1,-548.26 18.68,-674.49 -8.42,-21.08 -11.97,-25.4 -18.88,-53.76 -30.45,-124.9 -147.91,-227.39 -207.07,-332.92 -5.24,-9.35 -7.59,-15.71 -12.8,-23.19 -7.78,-11.19 -6.77,-7.64 -16.03,-19.42l-32.21 -41.45c-6.4,-9.88 -6.49,-12.82 -13.38,-23.47l-43.34 -57.84c-0.99,-1.24 -2.31,-2.97 -3.27,-4.25l-107.51 -140.4c-58.99,-84.92 -59.04,-72.54 -95.68,-122.47l-58.49 -79.98c-56.59,-65.86 -105.12,-138.03 -162.7,-201.8l-122.73 -161.64c-24.73,-27.87 -41.19,-56.18 -62.44,-82.76l-126.16 -163.9c-19.93,-35.11 -45.19,-56.97 -67.9,-85.79l-75.24 -93.25c-10.58,-12.46 -5.81,-6.83 -15.25,-19.85l-163.51 -195.09c-7.6,-8.18 -9.31,-10.34 -16.36,-18.79l-120.16 -137.2c-27.98,-22.79 -47.47,-61.44 -84.33,-63.67 -19.34,36.74 12.33,83.45 34.4,115.09 24.11,34.57 38.57,64.44 59.38,99.85l62.2 98.45c26.93,43.19 53.04,93.48 86.53,132.96l73.55 107.27c13.93,20.29 16.19,31.83 28.98,51.64l270.35 393.77c1.45,1.54 6.02,5.28 7.34,6.79 16.67,19.08 28.68,61.62 42.11,82.01l232.68 327c15.56,24.58 25.03,48.65 48.59,70.33 39.97,36.79 7.14,38.43 54.38,68.33 2.01,32.32 9.49,63.21 -14.44,87.23 -1,1.01 -2.75,2.34 -3.79,3.35 -1.06,1.04 -2.74,2.43 -3.81,3.49 -32.88,32.41 -39.27,63.3 -95.04,59.01l-31.78 -48.09c-40.99,-45 -69.95,-100.46 -106.36,-148.83 -9.52,-12.65 -25.17,-31.6 -35.29,-44.54l-174.78 -241.19c-1,-1.13 -2.6,-2.64 -3.59,-3.75 -12.84,-14.38 -102.19,-158.8 -137.23,-197.44l-11.15 -11.58c-28.85,-28.13 -41.82,-60.74 -65.99,-93.19l-168.08 -232.15c-14.47,-19.54 -22.86,-28.24 -37.04,-49.79l-246.86 -337.65c-8.27,-9.96 -12.02,-13.79 -19.85,-23.33l-42.75 -51.88c-19.29,-24.4 -44.15,-63.77 -73.34,-35.43 -1.1,1.97 -2.39,2.71 -2.69,6.2 -3.27,38.06 -8.77,28.9 11.01,56.79l141.02 261.08c8.44,13.03 6.08,7.41 15.15,21.26 7.73,11.79 9.06,16.01 16.42,27.1 26.83,40.44 58.84,81.95 79.08,126.72 14.31,31.6 -0.87,8.11 14.52,27.15 9.08,11.24 5.15,1.38 16.43,20.58 16.38,27.84 29.56,65.82 51.45,93.3 47.35,59.43 83.9,126.21 127.82,185.38l50.16 89.18c0.84,1.34 2.12,3.03 2.98,4.37 0.86,1.36 2.11,3.09 2.97,4.47 0.87,1.4 2.06,3.15 2.91,4.58l242.03 391.36c27.91,39.63 52.66,72.82 73.02,117.32l16.63 26.24c31.36,41.38 55.29,74.51 76.18,121.78 15.65,35.43 47.58,45.29 2.47,90.91l-14.57 14.03c-76.68,72.28 -84.33,30.07 -160.87,-94.78l-68.51 -107.55c-9.88,-22.25 0.69,-11.86 -13.41,-28.94 -0.17,-0.2 -15.81,-14.09 -21.88,-20.47 -21.49,-22.52 -28.82,-55.43 -46.24,-78.88l-127.87 -184.26c-9.33,-9.68 -2.09,-2.62 -10.37,-12.41 -1.03,-1.22 -2.37,-2.94 -3.39,-4.14 -23.49,-27.85 -33.65,-60.25 -57.17,-88.5l-108.36 -160.24c-17.84,-24.14 15.68,27.28 -7.85,-13.08l-18.22 -27.37c-8.57,-11.04 -1.97,-1.08 -8.93,-11.57l-19.65 -31.49c-0.88,-1.26 -2.26,-2.89 -3.15,-4.12 -0.87,-1.23 -2.2,-2.88 -3.06,-4.11l-45.04 -70.95c-41.23,-71.29 -102.84,-135.11 -145.5,-204.31l-44.74 -58.86c-19.4,-23.48 -33.35,-59.25 -56.07,-83.1l-101.99 -137.85c-32.09,-38.86 -43.46,-89.58 -107.36,-80.29 -24.57,64.55 2.16,60.48 61.24,177.57 13.81,27.37 19.57,29.57 32.55,54.24 21.89,41.6 44.18,69.07 66,108.23l52.11 78.88c29.18,49.55 45.61,99.87 78.32,149.09 10.04,15.1 28.11,39.9 35.17,51.9 17.25,29.32 9.92,29.86 31.16,56.55l70.64 101.61c8.31,19.56 2.14,13.2 13.38,32.54l186.96 302.67c18.85,20.23 12.48,27.41 31.09,54.67l231.62 395.75c37.99,53.95 92.34,114.92 17.53,159.88 -74.98,45.05 -78.6,40.95 -137.2,-61.49 -48,-83.9 -106.83,-161.46 -155.72,-243.88l-111.28 -174.82c-19.21,-23.58 -28.98,-54.14 -47.48,-82.88 -14.32,-22.24 -17.27,-20.06 -32.23,-46.59 -10.61,-18.82 -18.87,-33.07 -31.09,-50.81l-145.52 -217.93c-27.22,-55.09 -350.68,-537.55 -376.77,-571.46 -13.15,-17.1 -24.42,-24.27 -41.14,-39.88 -4.47,-4.18 -6.21,-6.46 -11.17,-10.68l-41.88 -16.74c-1.68,-0.09 -4.55,-0.03 -6.79,0.35 -0.82,2.48 -1.47,3.51 -1.54,7.67l0.38 27.17c1.47,5.55 13.24,23.56 15.99,28.41l101.35 221.19c14.47,27.43 17.06,15.37 28.41,48.57l141.44 268.52c11.24,17.49 13.7,35 25.18,55.48l70.78 124.45c11.07,21.51 -11.23,-22.21 6.34,15.58l410.73 750.35c34.22,44.88 80.71,157.29 113.01,214.76l231.55 344.08c1.05,1.06 2.47,2.71 3.52,3.79l34.63 37.98c1.07,1.17 2.54,2.8 3.64,3.95 33.4,34.79 75.07,85.35 114.99,110.92l111.02 48.03c34.5,8.25 36.98,10.77 61.13,19.9 28.7,10.87 45.59,5.62 78.6,10.51 42.61,6.31 80.46,26.09 125.47,32.74l134.94 26.77 161.57 78.55c47.69,34.87 85.81,78.65 126.37,121.5l211.23 275.98z"/>
    <path class="fil1" d="M25641.08 3116.77c-14.64,47.74 -6.08,11.83 -26.94,44.01l-36.66 63.19c-24.84,42.87 -27.53,20.21 -26.76,75.75l60.94 -56.52c5.42,-8.91 4.03,-14.13 8.17,-23.79 27.61,-0.51 45.67,-4.51 70.56,-12.33 45.91,-14.4 11.11,-3.49 65.85,-3.49l0.43 50.74c76.84,6.16 57.31,10.45 57.68,36.8l58.4 0c2.46,77.41 29.15,-23.71 29.15,65.67 54.06,0 64.87,-15.88 65.59,29.06l58.39 0 -0.01 58.13c25.47,0.37 17.24,0.15 34.17,16.89l15.04 14.19c0.92,1.19 2.54,2.61 3.3,3.9 7.47,12.49 5.34,-1.62 5.7,23.49l70.32 0.05 0.31 -57.14 22.89 0c1.57,41 -13.49,9.67 32,41.51 1.35,0.95 2.91,2.35 4.33,3.26 1.45,0.92 3.08,2.25 4.61,3.1 32.47,17.9 35.92,3.88 68.37,2.69 -0.04,43.09 0.99,14.78 -15.53,36.29l-35.86 88.35c46.26,-9.14 51.94,-52.11 82.78,-78.66l16.06 -12.4 136.11 -214.95c31.03,-63.07 20.07,-25.83 44.74,-79.75 4.53,-9.91 5.91,-11.95 13.11,-21.49l85.65 -125.46c9.76,-16.49 16.15,-34.72 28.59,-51.9l231.89 -374.04c4.54,-10.6 7.35,-22.9 12.31,-30.94 7.37,-11.97 1.64,-1.82 16.29,-18.62 26.88,-30.84 55.3,-88.09 78.15,-126.44 10.98,-18.42 15.52,-32.97 28.48,-51.84l252.23 -483.94c28.31,-69.98 10.08,-44.73 34.86,-53.88 24.77,60.69 -17.64,117.86 -21.77,226.6l-39.72 291.6c-5.99,24.7 -12.11,28.27 -17.79,45.79 -5.68,17.48 -7.05,37.34 -11.68,55.01l-27.64 102.59c-11.27,36.64 -9.87,8.94 -22.66,41.55l-95.53 239.77c-9.05,29.95 -5.89,25.42 -17.27,50.03l-41.26 88.96c-16.05,32.82 -25.44,53.17 -42.1,88.45l-46.17 85.16c-18.59,35.35 -126.32,241.66 -127.03,268.12 -6.38,39.55 1.03,3.83 -26.26,57.18 -8.49,16.61 -35.34,50.64 -31.76,72.57 32.19,62.81 -33.07,-46.79 12.82,14.92 17.79,23.91 -0.62,-15.81 12.41,35.6l7.08 20.27c0.79,1.98 1.93,4.72 3.5,6.69 18.08,-12.76 36.68,-49.31 49.26,-72.87 26.05,-48.79 23.21,-7.46 58.02,-90.67 7.83,-18.71 9.32,-17.32 11.31,-20.36l173.75 -336.25c13.17,-25.39 7.23,-5.31 21.99,-29.6l227.28 -508.25c15.63,-16.15 -6.59,-7.53 24.17,-13.33l58.05 -138.37c10.3,-22.04 7.7,-35.01 16.89,-56.56 8.46,-19.85 13.65,-18.61 20.26,-44.1l128.9 -441.38c41.75,-89.87 13.71,-29.77 32.86,-110.07 6.67,-27.97 14.29,-22.94 18.65,-52.91 20.08,-137.98 17.62,-65.49 27.51,-110.73 9.02,-41.26 3.06,-83.78 17.25,-123.66 18.36,-51.65 10.06,-58.54 18.23,-119.74 18.06,-135.12 20.64,-36.09 33.86,-250.19 3.11,-50.3 14.47,-74.52 16.53,-130.93 1.84,-50.47 36.05,-223.18 -0.44,-254.88 -1.23,-0.66 -3.53,-2.53 -4.04,-1.14l-85.18 35.36c-31.18,18.2 -61.87,28.37 -95.65,44.71l-24.51 17.27c-53.04,39.89 -177.05,117.45 -215.41,156.19l-565.38 542.35 -154.09 188.5c-15.78,18.18 -20.72,19.26 -34.26,37.97 -44.49,61.51 -94.71,110.98 -120.49,157.25l-42.73 60c-54.68,84.97 -96.68,113.39 -159.31,220.01l-197.33 290.03c-52.51,67.66 -43.73,69.09 -72.41,110.24 -3.31,4.75 -7.33,11.25 -8.66,13.22 -10.31,15.2 -17.27,22.9 -30.27,43.07l-168.28 245.82c-18.39,27.64 -6.17,24.44 -27.53,53.16l-42.08 67.67c-27.15,43.31 -35.32,32.9 -29.58,52.82z"/>
    <path class="fil1" d="M21205.43 1198.81l1.22 1179.27c-0.09,102.08 7.1,187.66 7.87,291.51 0.4,54.25 7.2,89.91 7.35,138.31 0.19,62.91 -14.83,97.56 52.18,77.47l3.41 -133.51c6.16,-33.97 11.08,-34.65 11.78,-74.69 1.25,-71.34 9.59,-108.49 15.96,-168.64 18.23,25.2 16.25,58.95 16.31,88.02 0.13,79.64 -1.3,118.68 8.03,196.81 5.19,43.46 13.47,38.28 14.99,92.28l310.99 0.99c133.2,4.01 212.55,10.78 357.08,8.75 136.34,-1.93 121.47,29.97 122.8,-160.22l13.59 -1540.81c-81.94,-19.52 -526.4,-16.83 -661.08,-16.71 -87.51,0.01 -225.43,-15.48 -282.48,21.17z"/>
    <path class="fil1" d="M23147.1 3780.75c25.44,-21.94 64.71,-7.99 99.36,-18.24 24.7,-7.3 12.1,-10.04 41.9,-15.29 18.48,-3.25 34.06,-1.75 52.61,-5.85 93.69,-20.7 28.76,-23.39 194.73,-40.45l45.74 -11.54c1.84,-0.61 3.76,-1.27 5.64,-1.87l33.63 -9.64c47.9,-16.6 19.99,-18.58 57.39,-57.17 59.25,-61.14 71,-215.04 87.77,-253.64l44.14 -187.42c4.24,-65.85 -0.08,-139.99 18.54,-215.97 22.06,-90.02 2.31,-271.5 9.82,-308.67 5.6,-27.69 -2.12,-8.74 10.64,-24.85 27.56,10.96 4.1,-5.03 25.48,21.46l146.95 253.04c11.79,31.29 18.39,34.25 29.34,66.16 9.66,28.16 17.57,41.4 24.82,62.75 30.73,90.56 -24.24,89.89 115.96,80.45 49.25,-3.32 68.82,9.08 74.78,-35.75 -12.18,-67.5 -9.97,-31.18 -21.71,-68.77 -10.3,-32.92 -2.03,-60.89 -16.16,-87.46l-46.35 -107.28c-24.89,-91.47 -9.44,-10.63 -29.33,-65.26 -16.33,-44.87 12.15,2.83 -34.35,-65.35 -7.06,-10.36 -15.25,-19.17 -21.57,-28.8 -10.72,-16.31 -26.04,-70.19 -50.17,-103.61 -2.2,-3.04 -8.64,-10.22 -10.12,-11.76l-16.67 -15.31c0.51,34.27 12.6,36.36 24.62,70.97 9.92,28.57 41.39,71.23 55.14,99.43 8.82,18.07 3.43,16.87 13.58,37.29l47.22 96.26c5.3,12.51 5.6,25.29 13.04,40.21l27.8 71.66c0.78,2.33 5.44,14.26 6.35,16.37l4.66 9.76c0.89,2.01 3.52,7.24 4.3,9.3l15.89 87.4c8.19,23.83 9.59,11.53 17.01,28.96 -159.83,47.84 -143.61,-16.17 -155.25,-67.43 -8.15,-35.93 -77.09,-174.59 -97.22,-210.65l-97.37 -159.14c-128.74,-179.47 -147.13,-170.99 -289.05,-307.91 -1.03,-1 -2.54,-2.58 -3.59,-3.59l-101.08 -96.92c-33.21,-38.22 -172.9,-136.17 -216.12,-161.91 -70.15,-41.79 -96.91,-78.32 -207.42,-149.38l-30.23 -21.15c-20.9,-17.6 -39.96,-26.94 -60.39,-42.67 -14.33,-11.04 -49.42,-32.02 -66.98,-40.69 -53.64,-26.47 -75.56,-54.22 -135.48,-67.82 -54.05,-12.27 -15.81,-22.19 -76.89,-31.57 -55.25,-8.49 -73.51,-19.91 -119.31,-33.01l-153.49 -49.89c-7.93,-2.39 -31.57,-7.74 -39.93,-10.54 -39.68,-13.35 -34.98,-15.66 -66.51,-32.38 0,-105.29 -25.23,-161.39 49.54,-153.52 28.85,3.04 22.35,13.64 51.63,20.18 32.72,7.3 61.88,2.6 93.47,14.9l38.02 14.14c12.07,2.41 10.49,1.63 22.14,2.22 58.34,2.97 38.95,11.8 84.18,22.79l81.71 25.77c2.13,0.89 8.48,3.4 10.69,4.22l41.34 16.12c22.87,12.26 23.27,20.26 51.3,24.9 60.75,10.08 28.28,7.78 80.54,26.67l128.36 53.12c20.22,7.46 1.93,4.04 28.42,6.64 -50.25,-58.03 -27.44,-16.11 -84.89,-46.78 -31.89,-17.03 -1.73,-8.21 -42.95,-19.99 -42.32,-12.08 -13.81,-8.37 -45.91,-21.23 -15.41,-6.17 -36.01,-8.11 -51.77,-13.87 -26.27,-9.62 -16.47,-10.26 -44.87,-20.64l-194.93 -66.28c-66.44,-16.34 11.1,-10.55 -100.25,-30.58 -40.63,-7.3 -49.86,-21.42 -102.49,-27.22 -41.97,-4.62 -71.49,-12.68 -107.9,0.38 -2.3,64.15 -11.21,178.78 14,219.66l79.69 1.48c21.75,48.28 54.25,15.64 100.79,35.42 24.73,10.51 6.02,13.92 49.14,20.3 127.01,18.79 29.59,19.86 106.54,32.52 52.19,8.59 38.51,10.32 80.16,32.38l9.38 4.75c27.11,13.91 38.06,20.18 73.09,23.51 6.39,86.65 -7.27,55.78 35.56,95.42 61.98,57.37 9.77,-13.99 121.45,75.02 12.04,9.6 2.24,3.21 17.43,10.41 55.03,26.1 4.68,8.83 61.69,39.88 1.55,0.84 3.48,1.77 5,2.67l13.47 9.39c8.9,6.17 11.78,8.67 22.46,14.04 0.98,39.05 4.45,72.03 -11.69,109.28 -26.04,60.1 -12.28,58 -35.6,96.25 -28.03,46 -4.12,34.07 -25.94,76.13 -18.26,35.22 -40.54,124.67 -52.8,164.66l-65.49 147.32c-37.4,63.15 -3.37,42.16 -37.67,100.46 -14.45,24.56 -9.58,21.55 -19.57,51.67 -11.59,34.92 -18.64,17.74 -24.89,46.49 -7.52,34.52 -14.71,81.51 -40.67,122.97l-5.92 8.41c-5.84,9.11 -8.96,13.56 -11.25,22.79 -6.3,25.25 -0.71,38.27 -10.66,64.92 -14.03,37.56 -47.63,137.03 -43.68,172.52 4.91,44.11 18.47,22.43 29.57,116.88 13.14,111.8 40.22,148.92 58.2,227.83l50.04 160.6c7.26,22.83 6.87,40.63 12.7,62.21 52.73,-0.23 93.32,-6.24 145.23,-10.48 35.89,-2.94 95.6,-19.63 128.75,-14.57z"/>
    <path class="fil2" d="M26786.15 3479.89c-20.96,11.13 -18.28,4.06 -35.65,35.83 -8.21,15.02 -16.3,26.49 -23.9,42.37 -20.62,43.1 -53.36,122.83 -80.21,160.42l-32.05 53.87c-27.89,36.74 -39.71,75.94 -87.94,131.87 -39.36,45.65 -2.96,33.7 -55.01,83.9 -27.56,26.58 -9.77,16.95 -29.62,55.46l-27.74 53.42c-7.54,13.35 -14.85,24.05 -24.52,41.69l-98.22 140.14c-0.86,1.56 -1.81,3.49 -2.71,5.05l-57.11 88.89c-24.07,44.24 -49.4,104.17 -94.67,105.99 -13.57,0.54 -15.91,-0.81 -24.49,-4.05 -21.46,-8.1 -11.17,-5.61 -23.16,-15.82 -24.45,-20.83 -23.12,-11.78 -48.43,-31.18 -59.37,-45.5 -172.32,-72 -193.03,-132.1 25.28,-21 14.15,-9.02 29.37,-39.9l60.44 -93.31c26.61,-55.78 63.11,-96.13 91.19,-143.54l291.11 -451.31c14.87,-25.84 7.99,5.97 14.56,-38.07l-16.06 12.4c-30.84,26.55 -36.52,69.52 -82.78,78.66l35.86 -88.35c16.52,-21.51 15.49,6.8 15.53,-36.29 -32.45,1.19 -35.9,15.21 -68.37,-2.69 -1.53,-0.85 -3.16,-2.18 -4.61,-3.1 -1.42,-0.91 -2.98,-2.31 -4.33,-3.26 -45.49,-31.84 -30.43,-0.51 -32,-41.51l-22.89 0 -0.31 57.14 -70.32 -0.05c-0.36,-25.11 1.77,-11 -5.7,-23.49 -0.76,-1.29 -2.38,-2.71 -3.3,-3.9l-15.04 -14.19c-16.93,-16.74 -8.7,-16.52 -34.17,-16.89l0.01 -58.13 -58.39 0c-0.72,-44.94 -11.53,-29.06 -65.59,-29.06 0,-89.38 -26.69,11.74 -29.15,-65.67l-58.4 0c-0.37,-26.35 19.16,-30.64 -57.68,-36.8l-0.43 -50.74c-54.74,0 -19.94,-10.91 -65.85,3.49 -24.89,7.82 -42.95,11.82 -70.56,12.33 -4.14,9.66 -2.75,14.88 -8.17,23.79l-60.94 56.52c-0.77,-55.54 1.92,-32.88 26.76,-75.75l36.66 -63.19c20.86,-32.18 12.3,3.73 26.94,-44.01 -32.03,12.59 -25.33,9.36 -42.94,34.65l-78.37 125.23c-40.81,61.99 -47.83,60.87 -76.13,119.18l-181.03 300.64c-8.67,17.86 -12.66,24.1 -21.97,44.34 -14.53,31.54 -5.5,15.36 -31.96,36.43 -4.42,60.28 12.44,46.82 33.22,161.38 6.1,33.67 13.08,49.96 20.48,81.09 18.07,76.05 22.71,143.64 53.76,245.43 15.71,51.48 25.67,124.23 13.78,188.5 -7.81,42.2 -42.03,109.35 -62.86,136.48 -48.96,63.74 -49.14,43.17 -62.86,137.75 -14.97,103.28 -3.79,289.9 -6.02,403.83 48.92,3.64 36.37,-16.5 60.61,-53.95 17.97,-27.76 28.08,-38.86 46.59,-68.99 0.91,-1.48 1.98,-3.36 2.92,-4.79 0.93,-1.41 2.15,-3.2 3.1,-4.56 40.55,-57.84 9.57,-29.91 33.92,-68.29l137.19 -211.03c12.13,-27.39 25.52,-46.98 41.61,-75.55 23.56,-41.89 48.66,-61.99 78.26,-104.14 5.11,-7.28 7.91,-11.91 12.06,-17.23 81.76,-104.75 100.04,-103.36 260.78,-24.07 97.82,48.25 128.4,90.14 136.17,94.62 47.8,27.53 53.34,22.28 108.38,68.29 21.32,17.81 12.19,16.04 46.61,16.55l101.56 -143.14c12.04,-18.05 5.62,-12.67 20.43,-31.23 15.16,-19.01 29.83,-37.34 44.37,-56.84 3.63,-4.87 4.71,-7.11 9.16,-12.83l151.38 -249.9c8.78,-11.37 6.38,-6.55 10.7,-11.46 22.61,-25.69 -0.19,-7.06 38.73,-62.35l16.74 -27.28c29.05,-43.35 50.64,-99.74 88.57,-146.12 10.59,-12.95 1.01,3.68 12.75,-14.72 10.79,-16.92 2.68,-19.42 25.66,-48.15 11.6,-14.5 4.48,-2.43 12.1,-15.47 1.99,-3.4 4.12,-9.26 6.81,-14.69l142.2 -236.83c30.52,-64.37 47.1,-65.28 58.94,-93.1l33.59 -68.91c34.15,-79.33 68.01,-130.59 100.45,-199.73l150.83 -299.82c9.7,-25.93 6.59,-14.85 16.69,-36.16 22.16,-46.74 112.52,-252.92 121.68,-294.04 -30.76,5.8 -8.54,-2.82 -24.17,13.33l-227.28 508.25c-14.76,24.29 -8.82,4.21 -21.99,29.6l-173.75 336.25c-1.99,3.04 -3.48,1.65 -11.31,20.36 -34.81,83.21 -31.97,41.88 -58.02,90.67 -12.58,23.56 -31.18,60.11 -49.26,72.87 -1.57,-1.97 -2.71,-4.71 -3.5,-6.69l-7.08 -20.27c-13.03,-51.41 5.38,-11.69 -12.41,-35.6 -45.89,-61.71 19.37,47.89 -12.82,-14.92 -3.58,-21.93 23.27,-55.96 31.76,-72.57 27.29,-53.35 19.88,-17.63 26.26,-57.18z"/>
    <path class="fil1" d="M19762.65 6753.1c50.04,52.16 64.98,52.92 121.6,99.63 59.75,49.3 162.66,116.89 194.31,164.4 24.91,37.41 -25.05,-17.21 15.79,18.88 1.07,0.95 2.83,2.28 3.95,3.18l74.22 64.17c46.22,41.01 52.74,35.87 78.18,66.55 1.01,1.21 2.24,2.88 3.31,4.13 1.11,1.3 2.46,2.78 3.65,4.13 26.53,30.03 6.72,-8.32 26.79,31.37 -73.62,0 -268.57,-55.25 -375.17,-16.71l-183.95 69.03 -52.31 42.08c-1.1,1.04 -2.76,2.43 -3.83,3.51l-82.98 84.54c-1.42,1.62 -5.8,6.03 -7.24,7.59 -50.72,54.7 -47.92,45.66 -116,-2.58 -52.23,-37 -30.08,-33.75 -64.85,-41.65l98.1 96.39c-0.18,60.33 -9.74,46.32 -22.45,87.57 -14.95,48.54 -10.76,312.02 6.81,345.41l57.69 101.99c13.22,17.89 37.99,37.06 53.92,54.74 68.13,75.6 63.9,58.78 93.35,88.38l100.1 61.17c31.45,20.65 136.55,61.31 172.44,66.2 126.79,17.26 239.34,-21.05 341.65,-85.71 79.58,-50.29 173.86,-130.63 203.53,-219.67 8.39,-25.17 7.79,-17.78 15.28,-35.99 25.68,-62.39 41.26,-205.43 37.5,-291.27 -3.13,-71.48 -79.49,-252.88 -134.94,-310.23l-41.36 -46.16c-3.15,-3.4 -7.23,-7.39 -10.74,-10.83l-14.91 -13.83c-8.36,-7.24 -9.45,-7.14 -15.95,-13.16l-32.36 -32.7c-1.13,-0.97 -2.84,-2.31 -4,-3.29l-35.59 -31.07c-23.93,-23.58 -37.57,-38.07 -49.66,-63.02 24.11,-41.16 33.06,-30.61 69.29,-58.52 1.16,-0.9 2.74,-2.37 3.89,-3.28l100.04 -75.05c36.88,-25.68 53.56,-30.55 57.72,-46.7 14.62,-33.22 67.91,-58.39 100.8,-86.58 1.16,-1 2.8,-2.44 3.91,-3.46l16.94 -17.88c0.92,-0.97 2.65,-2.69 3.49,-3.55l11.12 -11.05c-119.01,-91.32 -185.77,-205.69 -322.06,-276.07 -33.72,-17.41 -37.03,-1.44 -44.87,-34.21l-17.33 11.98c-14.7,8.65 -15.44,10.01 -17.13,2.52 -5.41,-23.97 2.16,-4.5 8.85,-16.14 7.78,-13.54 5.67,20.78 12.55,-28.17 -37.43,2.87 -19.34,-2.58 -46.48,15.76 -9.55,6.46 -20.3,13.79 -29.96,20.77 -13.42,9.69 -35.75,28.53 -52.47,41.76l-157.21 126.86c-19.63,16.06 -33.5,27.58 -50.87,44.51 -35.18,34.28 -48.76,66.84 -73.91,63.41 -9.32,-1.27 -16.26,-7.82 -30.19,-14.08z"/>
    <path class="fil1" d="M19680.69 2353.97c56.6,-6.55 21.9,-1.78 35.77,9.53 -6.41,36.44 -19.15,51.63 -27.18,85.8 -26.83,114.08 -38.4,292.12 -27.63,409.13l21.39 197.3c2.35,37.67 16.06,60.59 20.38,95.19 4.01,32.17 -4.69,74.5 7.28,102.1 8.98,20.71 12.38,10.68 19.59,31.03 7.39,20.85 1.39,32.01 7.75,51.51 8.21,25.21 12.66,14.85 21.76,26.72 22.81,29.71 0.22,44.23 62.9,104.88 41.06,39.73 24.26,75.3 108.42,161.71 24.89,25.57 6.59,7.32 22.9,34.97 29.06,49.28 46.21,6.92 47.89,67.35 57.39,4.69 62.89,25.68 101.56,31.08 39.46,5.51 84.22,8.97 123.85,13.27 47.86,5.18 192.71,40.25 235.3,26.29 8.07,-23.54 5.41,-43.1 7.27,-68.92 3.86,-53.7 2.5,-22.99 18.35,-52.39 13.17,-24.45 6.95,-34.24 13.53,-60.68 5.62,-22.62 16.16,-27.13 22.69,-52.15 17.52,-67.11 102.71,-318.45 99.99,-351.59 -1.99,-24.15 -10.23,-44.18 -17.73,-59.18l-202.75 -546.11c-17.06,-38.1 -9.97,0.9 -23.88,-46.94 -12.3,-42.31 -10.44,-27.23 -22.16,-52.42l-41.98 -111.36c-11.08,-32.88 -14.03,-25.9 -22.93,-49.38l-34.8 -118.5c-5.08,-54.46 -4.26,-32.96 -17.33,-56.69 -14.11,-25.63 -7.02,-37.89 -17.38,-62.93 -9.96,-24.07 -14.11,-11.69 -23.18,-50.04 -14.21,-60.06 -11.87,-13.29 -24.33,-56.13 27.14,-28.9 10.49,8.27 61.01,-42.07 1.01,-1.01 2.49,-2.58 3.52,-3.55l126.91 -68.22c68.68,-48.04 58.81,3.28 68.74,-47.7 -118.03,31.55 -58.58,27.25 -116.81,50.95l-144.29 80.93c-1.5,0.85 -3.44,1.77 -4.94,2.59l-135.64 97.14c-63.73,45.96 -40.23,14.14 -90.77,68.33 -81.23,87.09 -238.38,151.03 -263.04,209.15z"/>
    <path class="fil1" d="M23493.21 4926.22l-442.77 239.13c-41.55,20.86 -25.65,11.96 -62.83,46.51 -1,0.94 -2.54,2.52 -3.55,3.41 -27.36,24.32 -35.96,9.01 -79.79,35.04 -43.78,26.01 -34.28,28.36 -45.04,35.56 -19.47,13.04 -24.58,0.02 -65.42,22.15 -297.2,161.04 -231.08,92.88 -246.77,274.76 -2.92,33.92 -19.43,193.99 -2.5,216.59 -0.95,115.79 -30.17,486.74 -23.72,558.15l28.59 -32.22c11.4,-16.21 17.45,-26.32 25.32,-41.92l42.72 8.17 147.21 -107.9c9.25,-7.69 13.77,-10.39 24.52,-19.34l160.33 -123.3c29.97,-23.05 24.84,-15.19 39.61,-45.7l40.75 0.86 9.88 70.03c1.29,-1.62 2.54,-4.1 3.13,-5.34 20.92,-43.87 2.63,18.92 8.01,-28.31 1.66,71.39 -3.56,47.87 16.12,92.57l4.13 9.86c17.31,56.71 15.81,345.21 4.35,358.6l-15.32 22.21c-16.4,34.42 -132.51,137.54 -170.27,165.91 -32.62,24.52 -13.22,14.39 -34.7,43.29 -12.77,17.19 -11.78,12.2 -24.15,21.37l-12.86 9.44c-1.27,0.95 -3.03,2.24 -4.27,3.19 -1.22,0.94 -3,2.21 -4.19,3.15 -25.25,20.02 -25.19,33.68 -57.09,27.91 -4.76,6.82 -5.94,10.18 -4.3,41.09 72.15,18.61 86.36,45.06 128.6,90.73l72.64 57.36c3.94,3.29 6.75,5.89 11.6,9.01l14.12 7.55c19.78,11.83 110.08,76.23 107.46,104.48 -1.63,17.63 -37.02,43.54 -49.65,58.06 -13.69,15.72 -8.91,14.73 -19.15,30.83l-31.29 35.74c-1.06,1.07 -2.59,2.62 -3.66,3.68l-58.03 58.61c-5.48,5.8 -9.86,9.64 -14.81,14.75 -13.36,13.8 -15.35,16.93 -22.14,30.66 -3.69,81.19 -75.29,60.32 -65.8,193.97 32.62,-3.28 21.39,3.51 37.47,-16.17 0.6,24.62 -2.45,96.24 16.46,114.47 13.24,12.76 -3.93,2.19 14.92,6.68 1.96,-49.92 8.47,-59.68 28.13,-93.98l14.47 -23c27.7,-40.37 12.14,-72.36 80.11,-131.8l66.85 -56.35c88.15,-61.49 188.73,-88.98 305.08,-65.62 35.76,7.18 16.5,5.93 39.68,16.31 19.23,8.63 32.93,7.84 51.35,14.6 55.35,20.31 110.96,62.27 143.25,108.43 25.34,36.23 66.88,61.08 83.17,97.92l20.81 38.26c24.97,38.5 18.92,194.59 14.1,239.68 -11.47,107.19 -12.42,54.18 -27.29,97.46 -10.25,29.85 0.91,15.55 -18.19,49.94 -11.47,20.63 -21.26,20.01 -7.2,42.15 18.16,-9.85 -1.96,-0.24 12.05,-14.53 1.02,-1.05 2.49,-2.83 3.64,-3.88 1.18,-1.08 2.81,-2.61 4.08,-3.64l37.79 -38.25c0.93,-1.55 2,-4.36 3.61,-6.07 0.93,29.35 2.47,40.9 -2.84,66.23 -3.83,18.27 -13.47,37.51 -7.32,47.58 21.15,-70.58 7.63,17.51 45.16,-87.44 21.74,-8.55 5.37,-1.6 31.2,-5.43 33.4,-61.75 39.66,-124.91 39.02,-222.31l-19.2 -176.99c-11.88,-29.92 -15.62,-5.6 -16.81,-56.19 30.73,-23.23 38.19,-14.49 78.88,-53.07l277.43 -246.82c15.68,-15.16 13.82,-13.5 23.91,-31.79 -47.57,0.12 -25.11,8.81 -94.7,61.48 -17.45,13.2 -18.58,16.8 -31.19,27.35 -2.81,2.35 -24.44,18.98 -29.2,22.82l-28.24 31.47c-7.93,11 -12.18,13.84 -25.79,21.53l-144.33 132.29c-11.2,5.78 -22.38,8.86 -37.98,6.82l-44.09 -25.2c-0.99,-1.04 -2.35,-2.71 -3.32,-3.79 -0.98,-1.11 -2.2,-2.89 -3.17,-4.05 -0.98,-1.18 -2.17,-3.01 -3.16,-4.21l-71.92 -88.64c-28.11,-30.05 -36.12,-32.04 -70.12,-54.49 -24.14,-15.94 -4.07,-4.3 -36.83,-16.35 -49.5,-18.2 14.42,-15.9 -82.03,-29.47 -37.72,-5.3 5.96,5.69 -36.11,-17.78 -36.9,-20.59 -237.35,-22.43 -287.57,-0.49 -1.5,0.65 -3.19,1.83 -4.62,2.47 -1.36,0.61 -3.09,1.77 -4.43,2.33l-9.06 3.7c-28.89,7.62 -68.1,-5.36 -96.73,8.87 -33.16,3.8 20.51,-58.71 24.95,-62.23 4.66,-3.68 29.37,-15.28 37.61,-19.49 15.65,-7.97 23.11,-14.44 39.81,-26.15l47.43 -42.53c59.03,-79.2 61.49,-46.66 61.49,-97.44 44.17,-1.44 6.22,2.5 73.69,-42 42.08,-27.75 53.29,-26.88 99.14,-68.07l188.52 -147.09c30.49,-31.25 56.27,-42.56 65.46,-51.41l17.11 -24.28c-69.77,25.68 -137.42,130.05 -219.46,130.46 -15.18,-34.75 -10.74,-27.88 -51.46,-65.32 -10.06,-9.25 -19.95,-19.33 -28.78,-29.52 -27.4,-31.65 -76.36,-84.98 -109.47,-108.12 -16.3,-11.4 -23.44,-21.67 -42.99,-26.44 -35.73,-5.6 -36.05,-24.83 -79.51,-48.68 -40.71,-22.35 -42.82,-27.48 -39.71,-87.72 4.17,-80.52 1.15,-162.5 4.66,-243.48 6.79,-156.56 6.47,-319.71 31.98,-463.57 17.83,-8.64 15.29,-1.41 35.62,-18.97 1.18,-1.02 2.68,-2.58 3.8,-3.64l13.64 -14.79c34.24,-37.34 133.64,-111.16 138.45,-137.5l1 -305.92c5.28,-33.1 24.77,-34.56 6.8,-73.02l113.8 -91.17c8.82,-6.49 3.85,-3.04 13.27,-8.9 1.86,-1.16 7.63,-4.06 9.46,-5.22l77.87 -53.66c5.05,-3.13 13.93,-7.24 19.42,-10.07l258.3 -171.2c8.45,-5.38 10.4,-5.19 18.83,-10.24l61.92 -39.72c48.76,-39.39 40.94,-9.32 53.78,-39.77 -46.85,-23.25 -107.51,21.63 -137.25,37.15 -40.55,21.18 -87.73,45.67 -120.35,61.45 -70.6,34.14 -211.96,119.27 -243.03,124.88z"/>
    <path class="fil3" d="M20985.05 4423.77l59.37 9.37c180.06,0 187.65,27.88 231.79,29.49 34.79,1.28 59.66,4.08 89.38,6.82 68.47,6.31 232.38,49.27 321.48,34.91 47.46,-7.64 109.47,-11.39 163.12,-19.3 23.52,-3.47 45.96,-12.63 68.5,-15.7 29.7,-4.06 60.32,-2.96 87.62,-6.84 34.45,-4.9 36.59,-10.39 71.37,-15.1 78.22,-10.58 92.85,-4.57 154.64,-26.69 22.43,-8.03 55.67,-6.44 86.2,-8.94 60.13,-4.92 109.19,-21.63 154.99,-27.85 85.88,-11.68 123,-25.8 151.75,-29.82 60.6,-8.48 101.81,-6.24 158.49,-23.87 47.35,-14.72 116.38,-7.6 157.44,-25.13 92.26,-39.37 97.62,-2.67 153.16,-29.21 87.46,-41.79 101.79,-4.84 151.83,-30.86 28.86,-15.01 9.42,-20.77 63.12,-22.18 37,-0.96 57.29,2.03 88.71,-7.78 67.92,-21.22 75.18,-17.7 158.38,-25.33 -2.77,-43.44 -2.7,1.35 -10.72,-29.09 -5.03,-19.07 -3.28,-20.99 -2.19,-40.92 53.77,-46.1 38.78,-27.02 79.24,-58.65 28.31,-22.14 61.63,-24.45 88.38,-50.36 40.96,-39.67 35.36,-25.34 92.23,-46.2 23.37,-8.57 79.42,-40.49 90.08,-56.65 -62.2,-25.48 -92.49,9.5 -140.8,15.97l-614.86 94.27c-49.58,6.66 -97.71,11.62 -151.14,20.82 -61.68,10.62 -105.2,8.21 -162.18,16.06 -43.03,5.94 -94.34,25.68 -153.83,18.92 -38.1,-0.53 -125.08,7.18 -165.56,14.3 -101.16,17.81 -291.93,19.48 -329.35,35.02 -2.23,0.93 -4.18,3.21 -17.19,5.95l-240.56 15.09c-33.21,2.28 -48.14,11.97 -80.15,14.64 -185.84,15.55 -179.15,7 -350.14,2.76 -105.46,-2.63 -0.2,-20.63 -167.33,-21.9 -61.91,-0.47 -112.15,-5.69 -175.31,-8.21 -61.19,-2.44 -90.1,-21 -159.64,-21.7 -152.01,-1.54 -156.14,-25.67 -335.95,-34.67 -21.08,-1.05 -22.51,-0.39 -41.3,-7.04 -8.57,-3.04 -25.25,-11.38 -29.17,-12.42 -18.1,-4.79 -61.53,-9.21 -82.06,-10.06 -180.96,-7.45 -79.72,-7.2 -158.12,-25.81 -48.32,-11.49 -121.85,1.03 -172.89,-12.47 -58.39,-15.44 -92.01,-18.5 -164.61,-22.03l-402.91 -75.1c-35.08,-9.42 -91.55,-20.12 -122.33,-2.4l-8.13 7.83c16.3,22.41 18.34,9.37 48.96,18.61 26.04,7.86 17.94,12.22 41.67,21.71 34.17,13.66 57.27,7.78 97.21,27.35 66.51,32.61 50.45,-17.59 134.99,62.61 18.68,17.73 9.86,12.46 25.92,32.72 12.47,15.72 18.24,18.21 30.97,34.38l30.48 35.19c80.36,100.63 -16.99,42.96 154.42,91.57 40.59,11.51 62.67,9.66 107.32,15.67 31.79,4.28 67.44,19.69 104.34,27.45l308.46 60.09c46.1,7.48 71.41,-2.72 117.54,17.3 42.79,18.57 51.28,12.73 103.98,17.28 48.25,4.16 58.87,14.96 100.29,23.01l103.38 19.44c1.59,-2.08 5.02,2.12 7.22,3.68z"/>
    <path class="fil4" d="M19296.05 6386.14c19.33,32.13 15.36,19.21 45.07,40.27 34.83,24.68 27.68,29.37 68.49,54.52 55.25,34.06 327.61,265.2 353.04,272.17 13.93,6.26 20.87,12.81 30.19,14.08 25.15,3.43 38.73,-29.13 73.91,-63.41 17.37,-16.93 31.24,-28.45 50.87,-44.51l157.21 -126.86c16.72,-13.23 39.05,-32.07 52.47,-41.76 9.66,-6.98 20.41,-14.31 29.96,-20.77 27.14,-18.34 9.05,-12.89 46.48,-15.76 -6.88,48.95 -4.77,14.63 -12.55,28.17 -6.69,11.64 -14.26,-7.83 -8.85,16.14 1.69,7.49 2.43,6.13 17.13,-2.52l17.33 -11.98c7.84,32.77 11.15,16.8 44.87,34.21 136.29,70.38 203.05,184.75 322.06,276.07l-11.12 11.05c-0.84,0.86 -2.57,2.58 -3.49,3.55l-16.94 17.88c-1.11,1.02 -2.75,2.46 -3.91,3.46 -32.89,28.19 -86.18,53.36 -100.8,86.58 59.74,-15.16 154.69,-116.48 193.26,-140.43l124.53 -80c10.26,-5.36 62.9,-40.26 70.35,-55.13 9.3,-116.9 9.28,-385.36 -2.45,-501.08 -3.83,-37.85 -15.27,-56.05 -17.75,-103.35 -2.16,-41.18 -2.98,-83.05 -3.62,-124.3 -1,-64.91 -4.45,-443.08 -22.53,-474.04 -20.69,-35.43 -36.15,-28.4 -73.24,-51.91 -28.22,-17.88 -54.09,-30.22 -83.43,-48.76l-281.94 -160.45c-15.58,-10.5 -32.42,-13.82 -54.48,-17.61l172.45 100.65c55.2,24.76 97.48,55.24 146.47,79.95l32.41 18.85c20.86,13.81 6.35,6.63 27.36,17.84l98.3 47.27c14.72,60.81 11.72,167.7 13.69,238.92 2.04,73.5 9.41,151.98 14.24,227.39 10.43,162.76 9.09,320.13 2.93,482.21 -20.43,-1.83 -32.03,-14.11 -64.79,-25.58 -21.58,-7.55 -10.36,-2.76 -29.59,-20.69l-302.62 -206.13c-11.93,-4.99 -8.66,-3.4 -15.41,-7.12 -22.73,-12.49 -19.87,-16.44 -52,-15.66 0,49.99 -1.06,105.91 -31.73,143.15l-53.87 63.2c-1,0.72 -2.84,2.08 -3.78,2.73 -1.47,1.02 -8.72,5.42 -10.84,6.59l-8.03 94.94c-4.17,24 4.06,-9.76 -2.78,13.72 -4.84,16.59 -0.75,8.5 -8.66,19.49 -26.64,-34.94 -18.44,-190.82 -19.43,-230.45 -3.95,-157.81 -27.87,-296.3 -26.16,-451.88 0.65,-58.86 1.97,-52.18 -32.12,-82.28l-158.3 -140.77c-27.57,-26.6 -39.11,-33.01 -51.11,-72.61 -15.88,-52.46 -76.31,-142.47 -94.17,-204.05l-31.04 -94.01c-13.7,-44.93 -6.89,-5.47 -20.45,-37.39 -9.86,-23.22 -1.96,-36.9 -10.81,-55.27 -13.15,-27.28 -8.79,7.87 -25.31,-32.53 -6.15,-15.05 -6.19,-38.54 -6.04,-60.49 -39.2,-23.64 -97.61,-84.83 -136.18,-108.19l-101.63 -73.67c-30.03,-21.95 -25.02,-12.21 -30.51,-51.29 70.44,0 114.4,31.94 173.86,64.35 1.44,0.79 3.4,1.72 4.85,2.53l127.96 71.3c19.9,11.79 31.66,16.1 46.47,24.39l281.15 149.66c43.19,21.86 99.85,69.33 145.15,81.21 -20.96,-38.6 -43.75,-31.49 -109.92,-72.07 -104.5,-64.1 -254.86,-130.21 -339.44,-185.53l-167.72 -93.77c-21.62,-14.21 -38.53,-17.77 -59.44,-29.19 -42.58,-23.25 -44.02,-15.29 -62.07,-26.81l-53.15 -32.48c-32.78,-18.94 -84.97,-33.24 -116.28,-55.65l-0.74 -522.17c54.33,-12.46 62.4,0.45 99.36,11.07l401.2 81.07c37.06,20.44 51.78,16.83 99.16,26.32 39.74,7.97 58.33,17.62 100.19,23.31 48.08,6.53 61.26,4.56 101.96,19.18 28.57,10.26 65.92,10.71 100.45,15.2 45.43,5.9 60.04,19.83 98.14,25.21 36.99,5.23 74.33,0.9 108.63,9.98 41.86,11.09 43,20.19 98.46,23.06 60.3,3.13 56.53,4.74 98.53,20.53 31.84,11.96 70.54,10.42 106.62,15.72 72.55,10.66 85.25,34.45 225.01,30.85 -2.2,-1.56 -5.63,-5.76 -7.22,-3.68l-103.38 -19.44c-41.42,-8.05 -52.04,-18.85 -100.29,-23.01 -52.7,-4.55 -61.19,1.29 -103.98,-17.28 -46.13,-20.02 -71.44,-9.82 -117.54,-17.3l-308.46 -60.09c-36.9,-7.76 -72.55,-23.17 -104.34,-27.45 -44.65,-6.01 -66.73,-4.16 -107.32,-15.67 -171.41,-48.61 -74.06,9.06 -154.42,-91.57l-30.48 -35.19c-12.73,-16.17 -18.5,-18.66 -30.97,-34.38 -16.06,-20.26 -7.24,-14.99 -25.92,-32.72 -84.54,-80.2 -68.48,-30 -134.99,-62.61 -39.94,-19.57 -63.04,-13.69 -97.21,-27.35 -23.73,-9.49 -15.63,-13.85 -41.67,-21.71 -30.62,-9.24 -32.66,3.8 -48.96,-18.61l8.13 -7.83c30.78,-17.72 87.25,-7.02 122.33,2.4l402.91 75.1 -107.7 -31.9c-121.89,-15.1 -51.85,-13.53 -105.59,-25.93 -38.9,-8.99 -80.47,-2.09 -118.05,-15.65 -81.47,-29.38 -299.55,-42.23 -452.12,-93.36 -10.3,-3.45 -102.56,-30.56 -105.56,-30.79 -31.4,35.59 -19.3,53.04 -19.31,113.37 -0.01,46.16 -1.43,92.32 -2.16,138.47l0.97 699.81c0.04,57.56 13.47,74.33 42.87,101.25l42.49 37.58c1.19,1.12 2.74,2.66 3.9,3.79l863.27 733.29c88.97,75.93 117.77,86.03 117.66,150.94 -0.14,94.32 4.06,190.25 6.23,284.79 1.99,86.77 16.09,165.4 18.54,254.67 4.27,156.73 29.08,93.1 -245.14,312.32 -28.49,22.76 -55.07,43.42 -76.75,61.93 -16.87,14.4 -21.75,19.65 -37.72,34.96 -2.34,2.24 -17.97,16.31 -18.93,17.04 -23.03,17.55 -14.21,32.56 -87.82,-28.51l-175.91 -137.44c-22.85,-15.7 -32.99,-23.89 -57.9,-43.52 -21.54,-16.98 -42.45,-34.04 -61.61,-48.11 -24.98,-18.34 -100.38,-82.38 -128.88,-88.24z"/>
    <path class="fil3" d="M19398.12 7355.35c34.77,7.9 12.62,4.65 64.85,41.65 68.08,48.24 65.28,57.28 116,2.58 1.44,-1.56 5.82,-5.97 7.24,-7.59l82.98 -84.54c1.07,-1.08 2.73,-2.47 3.83,-3.51l52.31 -42.08 183.95 -69.03c106.6,-38.54 301.55,16.71 375.17,16.71 -20.07,-39.69 -0.26,-1.34 -26.79,-31.37 -1.19,-1.35 -2.54,-2.83 -3.65,-4.13 -1.07,-1.25 -2.3,-2.92 -3.31,-4.13 -25.44,-30.68 -31.96,-25.54 -78.18,-66.55l-74.22 -64.17c-1.12,-0.9 -2.88,-2.23 -3.95,-3.18 -40.84,-36.09 9.12,18.53 -15.79,-18.88 -31.65,-47.51 -134.56,-115.1 -194.31,-164.4 -56.62,-46.71 -71.56,-47.47 -121.6,-99.63 -25.43,-6.97 -297.79,-238.11 -353.04,-272.17 -40.81,-25.15 -33.66,-29.84 -68.49,-54.52 -29.71,-21.06 -25.74,-8.14 -45.07,-40.27 -117.79,-42.3 -40.67,-136.77 -249.59,28.94 -83.18,65.97 -191.05,190.64 -244.47,280.19 -9.38,15.72 -26.85,42.69 -32.02,55.32 -11.46,28.05 -1.4,45.82 -12.42,75.02 -7.92,21 -20.37,32.46 -25.39,57.52 -16.5,82.42 -54.62,343.44 28.22,423.09l36.7 36.89c18.81,18.48 0.32,4.01 23.84,17.32 60.56,34.3 39.01,51.27 140.5,123.02 13.4,9.47 11.52,7.39 24.64,19.86l202.78 192.01c29.53,35.25 17.86,12.8 52.39,40.97l93.67 73.82c71.61,54.99 63.16,65.9 100.24,64.84 2.34,-35.03 7.51,-8.48 -31.91,-60.45 -3.83,-5.05 -5.77,-7.12 -9.74,-11.97 -0.95,-1.17 -2.36,-2.82 -3.32,-3.98l-9.75 -11.94c-17.37,-18.62 -7.89,-6.29 -28.08,-21.84 -30.67,-23.61 -69.98,-74.81 -99.93,-105.12 -68.32,-69.14 -170.74,-152.67 -234.71,-224.34l-63.02 -83.07c-42.28,-52.47 -20.47,-16.04 -60.1,-85.64 -1.1,-1.93 -4.01,-7.79 -4.99,-9.83 -42.1,-86.89 -37.28,-103.53 -47.41,-208.03 -5.65,-58.29 -15.39,-129.96 -14.24,-188.91 36.54,1.8 74.96,37.27 99.21,61.17 1.12,1.11 2.69,2.57 3.78,3.72l109.47 116.17c11.03,10.99 1.44,2.34 14.56,14.35l267.75 241.77c29.65,21.19 57.9,52.35 75.41,58.34z"/>
    <path class="fil1" d="M20296.17 5159.66c-19.27,-11.97 -6.52,-12.44 -40.07,-19.72 -45.3,-11.88 -101.96,-59.35 -145.15,-81.21l-281.15 -149.66c-14.81,-8.29 -26.57,-12.6 -46.47,-24.39l-127.96 -71.3c-1.45,-0.81 -3.41,-1.74 -4.85,-2.53 -59.46,-32.41 -103.42,-64.35 -173.86,-64.35 5.49,39.08 0.48,29.34 30.51,51.29l101.63 73.67c38.57,23.36 96.98,84.55 136.18,108.19 -0.15,21.95 -0.11,45.44 6.04,60.49 16.52,40.4 12.16,5.25 25.31,32.53 8.85,18.37 0.95,32.05 10.81,55.27 13.56,31.92 6.75,-7.54 20.45,37.39l31.04 94.01c17.86,61.58 78.29,151.59 94.17,204.05 12,39.6 23.54,46.01 51.11,72.61l158.3 140.77c34.09,30.1 32.77,23.42 32.12,82.28 -1.71,155.58 22.21,294.07 26.16,451.88 0.99,39.63 -7.21,195.51 19.43,230.45 7.91,-10.99 3.82,-2.9 8.66,-19.49 6.84,-23.48 -1.39,10.28 2.78,-13.72l8.03 -94.94c2.12,-1.17 9.37,-5.57 10.84,-6.59 0.94,-0.65 2.78,-2.01 3.78,-2.73l53.87 -63.2c30.67,-37.24 31.73,-93.16 31.73,-143.15 32.13,-0.78 29.27,3.17 52,15.66 6.75,3.72 3.48,2.13 15.41,7.12l302.62 206.13c19.23,17.93 8.01,13.14 29.59,20.69 32.76,11.47 44.36,23.75 64.79,25.58 6.16,-162.08 7.5,-319.45 -2.93,-482.21 -4.83,-75.41 -12.2,-153.89 -14.24,-227.39 -1.97,-71.22 1.03,-178.11 -13.69,-238.92l-98.3 -47.27c-21.01,-11.21 -6.5,-4.03 -27.36,-17.84l-32.41 -18.85c-48.99,-24.71 -91.27,-55.19 -146.47,-79.95l-172.45 -100.65z"/>
    <path class="fil0" d="M26334.36 3529.51c-6.57,44.04 0.31,12.23 -14.56,38.07l-291.11 451.31c-28.08,47.41 -64.58,87.76 -91.19,143.54l-60.44 93.31c-15.22,30.88 -4.09,18.9 -29.37,39.9 20.71,60.1 133.66,86.6 193.03,132.1 25.31,19.4 23.98,10.35 48.43,31.18 11.99,10.21 1.7,7.72 23.16,15.82 8.58,3.24 10.92,4.59 24.49,4.05 45.27,-1.82 70.6,-61.75 94.67,-105.99l57.11 -88.89c0.9,-1.56 1.85,-3.49 2.71,-5.05l98.22 -140.14c9.67,-17.64 16.98,-28.34 24.52,-41.69l27.74 -53.42c19.85,-38.51 2.06,-28.88 29.62,-55.46 52.05,-50.2 15.65,-38.25 55.01,-83.9 48.23,-55.93 60.05,-95.13 87.94,-131.87l32.05 -53.87c26.85,-37.59 59.59,-117.32 80.21,-160.42 7.6,-15.88 15.69,-27.35 23.9,-42.37 17.37,-31.77 14.69,-24.7 35.65,-35.83 0.71,-26.46 108.44,-232.77 127.03,-268.12l46.17 -85.16c16.66,-35.28 26.05,-55.63 42.1,-88.45l41.26 -88.96c11.38,-24.61 8.22,-20.08 17.27,-50.03l95.53 -239.77c12.79,-32.61 11.39,-4.91 22.66,-41.55l27.64 -102.59c4.63,-17.67 6,-37.53 11.68,-55.01 5.68,-17.52 11.8,-21.09 17.79,-45.79l39.72 -291.6c4.13,-108.74 46.54,-165.91 21.77,-226.6 -24.78,9.15 -6.55,-16.1 -34.86,53.88l-252.23 483.94c-12.96,18.87 -17.5,33.42 -28.48,51.84 -22.85,38.35 -51.27,95.6 -78.15,126.44 -14.65,16.8 -8.92,6.65 -16.29,18.62 -4.96,8.04 -7.77,20.34 -12.31,30.94l-231.89 374.04c-12.44,17.18 -18.83,35.41 -28.59,51.9l-85.65 125.46c-7.2,9.54 -8.58,11.58 -13.11,21.49 -24.67,53.92 -13.71,16.68 -44.74,79.75l-136.11 214.95z"/>
    <path class="fil3" d="M23702.62 6628.92l-17.11 24.28c-9.19,8.85 -34.97,20.16 -65.46,51.41l-188.52 147.09c-45.85,41.19 -57.06,40.32 -99.14,68.07 -67.47,44.5 -29.52,40.56 -73.69,42 0,50.78 -2.46,18.24 -61.49,97.44l-47.43 42.53c-16.7,11.71 -24.16,18.18 -39.81,26.15 -8.24,4.21 -32.95,15.81 -37.61,19.49 -4.44,3.52 -58.11,66.03 -24.95,62.23 28.63,-14.23 67.84,-1.25 96.73,-8.87l9.06 -3.7c1.34,-0.56 3.07,-1.72 4.43,-2.33 1.43,-0.64 3.12,-1.82 4.62,-2.47 50.22,-21.94 250.67,-20.1 287.57,0.49 42.07,23.47 -1.61,12.48 36.11,17.78 96.45,13.57 32.53,11.27 82.03,29.47 32.76,12.05 12.69,0.41 36.83,16.35 34,22.45 42.01,24.44 70.12,54.49l71.92 88.64c0.99,1.2 2.18,3.03 3.16,4.21 0.97,1.16 2.19,2.94 3.17,4.05 0.97,1.08 2.33,2.75 3.32,3.79l44.09 25.2c15.6,2.04 26.78,-1.04 37.98,-6.82l144.33 -132.29c13.61,-7.69 17.86,-10.53 25.79,-21.53l28.24 -31.47c4.76,-3.84 26.39,-20.47 29.2,-22.82 12.61,-10.55 13.74,-14.15 31.19,-27.35 69.59,-52.67 47.13,-61.36 94.7,-61.48l31.79 -22.09c12.06,-11.46 22.29,-21.48 33.01,-32.71 11.19,-11.75 17.75,-18.57 28.61,-29.9 15.82,-16.48 10.28,-20.89 32.07,-28.19 11.28,-40.7 45.6,-56.24 73.96,-84.31l39.48 -40.47c1.22,-1.01 2.98,-2.3 4.19,-3.32 1.2,-1.02 2.88,-2.41 4.07,-3.45l26.77 -23.8c1.15,-1 2.86,-2.34 4.01,-3.37l67.8 -49.54c1.11,-0.65 3.35,-1.88 4.89,-3.03 2.45,-71.15 -8.54,-52.19 -24.35,-101.99l-44.41 -78.27c-4.14,-5.28 -2.55,-2.33 -10.4,-10.32 -31.01,-31.48 -38.01,-51.51 -55.23,-70.03 -44.63,-48.02 -96.43,-81.47 -112.98,-98.22 -1.07,-1.08 -2.54,-2.69 -3.62,-3.8l-19.16 -18.37c-14.28,-10.45 -7.9,-4.31 -19.12,-10.74l-22.88 -23.88c-0.91,-1.45 -1.84,-3.44 -2.8,-4.92 -14.34,-22.41 -58.19,-59.68 -72.62,-64.31 -51.71,-7.62 -49.27,-2.17 -77.5,21.1l-374.96 283.9z"/>
    <path class="fil2" d="M22884.03 7332.6c-26.75,11.93 -51.71,58.69 -65.56,85.8 -10.4,20.36 -10.66,35.3 -17.9,56.05 -27.6,79.13 -37.57,72.45 -38.14,194.23 -0.56,117.75 9.07,62.59 16.19,138.17 4.32,45.76 18.45,68.84 32.17,112.83 10.67,34.22 39.75,75.73 55.01,98.04 79.3,115.95 111.85,138.2 249.82,202.04 25.16,11.64 91.96,30.71 116.3,35.71 106.63,21.9 282.19,-24.18 362.7,-83.55 57.44,-42.36 119.24,-84.59 156.79,-149.05 21.08,-36.2 47.27,-60.98 57.36,-102.75 -25.83,3.83 -9.46,-3.12 -31.2,5.43 -37.53,104.95 -24.01,16.86 -45.16,87.44 -6.15,-10.07 3.49,-29.31 7.32,-47.58 5.31,-25.33 3.77,-36.88 2.84,-66.23 -1.61,1.71 -2.68,4.52 -3.61,6.07l-37.79 38.25c-1.27,1.03 -2.9,2.56 -4.08,3.64 -1.15,1.05 -2.62,2.83 -3.64,3.88 -14.01,14.29 6.11,4.68 -12.05,14.53 -14.06,-22.14 -4.27,-21.52 7.2,-42.15 19.1,-34.39 7.94,-20.09 18.19,-49.94 14.87,-43.28 15.82,9.73 27.29,-97.46 4.82,-45.09 10.87,-201.18 -14.1,-239.68l-20.81 -38.26c-16.29,-36.84 -57.83,-61.69 -83.17,-97.92 -32.29,-46.16 -87.9,-88.12 -143.25,-108.43 -18.42,-6.76 -32.12,-5.97 -51.35,-14.6 -23.18,-10.38 -3.92,-9.13 -39.68,-16.31 -116.35,-23.36 -216.93,4.13 -305.08,65.62l-66.85 56.35c-67.97,59.44 -52.41,91.43 -80.11,131.8l-14.47 23c-19.66,34.3 -26.17,44.06 -28.13,93.98 -18.85,-4.49 -1.68,6.08 -14.92,-6.68 -18.91,-18.23 -15.86,-89.85 -16.46,-114.47 -16.08,19.68 -4.85,12.89 -37.47,16.17 -9.49,-133.65 62.11,-112.78 65.8,-193.97z"/>
    <path class="fil4" d="M22670.6 4073.93c59.49,6.76 110.8,-12.98 153.83,-18.92 56.98,-7.85 100.5,-5.44 162.18,-16.06 53.43,-9.2 101.56,-14.16 151.14,-20.82l614.86 -94.27c48.31,-6.47 78.6,-41.45 140.8,-15.97 -10.66,16.16 -66.71,48.08 -90.08,56.65 -56.87,20.86 -51.27,6.53 -92.23,46.2 -26.75,25.91 -60.07,28.22 -88.38,50.36 -40.46,31.63 -25.47,12.55 -79.24,58.65 -1.09,19.93 -2.84,21.85 2.19,40.92 8.02,30.44 7.95,-14.35 10.72,29.09 -83.2,7.63 -90.46,4.11 -158.38,25.33 -31.42,9.81 -51.71,6.82 -88.71,7.78 -53.7,1.41 -34.26,7.17 -63.12,22.18 -50.04,26.02 -64.37,-10.93 -151.83,30.86 -55.54,26.54 -60.9,-10.16 -153.16,29.21 -41.06,17.53 -110.09,10.41 -157.44,25.13 -56.68,17.63 -97.89,15.39 -158.49,23.87 -28.75,4.02 -65.87,18.14 -151.75,29.82 -45.8,6.22 -94.86,22.93 -154.99,27.85 -30.53,2.5 -63.77,0.91 -86.2,8.94 -61.79,22.12 -76.42,16.11 -154.64,26.69 -34.78,4.71 -36.92,10.2 -71.37,15.1 -27.3,3.88 -57.92,2.78 -87.62,6.84 -22.54,3.07 -44.98,12.23 -68.5,15.7 -53.65,7.91 -115.66,11.66 -163.12,19.3 -89.1,14.36 -253.01,-28.6 -321.48,-34.91 -29.72,-2.74 -54.59,-5.54 -89.38,-6.82 -44.14,-1.61 -51.73,-29.49 -231.79,-29.49 3.23,8 -10.75,11.5 41.46,15.99 126.29,10.84 38.4,0.06 135.19,23.06 67.13,15.96 117.84,0.53 193.13,26.03 59.78,20.26 133.46,4.46 195.27,23.11 65.32,19.7 110.19,-10.46 184.5,-12.9 171.22,-5.59 80.7,-21.27 188.51,-28.49 33.78,-2.26 69.32,-2.6 103.46,-5.14 47.22,-3.53 36.58,-16.76 84.54,-22.7 31.9,-3.94 69.09,-3.38 102.58,-7.7 31.56,-4.08 52.93,-13.46 85.58,-20.15 37.22,-7.62 68.58,-6.38 105.26,-9.67 45.96,-4.11 58.07,-22.06 182.53,-30.01 46.36,-2.97 56,-11.2 86.42,-20.31 31.37,-9.4 66.18,-6 100.42,-10.75 33.77,-4.67 50.08,-16.83 83.58,-22.52l409.74 -79.25c21.02,-7.6 -4.63,-0.68 20.99,-7.78l310.23 -48.15c29.74,-6.06 52.2,-15.23 87.37,-21.74l180.12 -38.2c39.55,-12.17 27.82,-23.51 95.07,-20.26 3.73,84.91 13.36,483.58 -6.86,532.8 -17.81,20.54 -30.91,26.9 -63.59,32.88l-168.13 78.46c-36.52,23.04 -116.3,55.62 -162.65,85.81 -70.92,46.21 -105.22,45.15 -125.93,80.66 31.07,-5.61 172.43,-90.74 243.03,-124.88 32.62,-15.78 79.8,-40.27 120.35,-61.45 29.74,-15.52 90.4,-60.4 137.25,-37.15 -12.84,30.45 -5.02,0.38 -53.78,39.77l-61.92 39.72c-8.43,5.05 -10.38,4.86 -18.83,10.24l-258.3 171.2c-5.49,2.83 -14.37,6.94 -19.42,10.07l-77.87 53.66c-1.83,1.16 -7.6,4.06 -9.46,5.22 -9.42,5.86 -4.45,2.41 -13.27,8.9l-113.8 91.17c17.97,38.46 -1.52,39.92 -6.8,73.02l-1 305.92c-4.81,26.34 -104.21,100.16 -138.45,137.5l-13.64 14.79c-1.12,1.06 -2.62,2.62 -3.8,3.64 -20.33,17.56 -17.79,10.33 -35.62,18.97 -25.51,143.86 -25.19,307.01 -31.98,463.57 -3.51,80.98 -0.49,162.96 -4.66,243.48 -3.11,60.24 -1,65.37 39.71,87.72 43.46,23.85 43.78,43.08 79.51,48.68 -10.56,-24.22 0.6,-9.69 -19.9,-27.97 -1.8,-1.6 -8.37,-6.1 -12.49,-9.28 -7.71,-5.96 -8.67,-7.42 -16.42,-12.96 -25.42,-18.19 -33.02,-15.15 -53.02,-42.65 -9.76,-143.94 4.53,-314.9 11.59,-459.2 3.8,-77.84 12.39,-136.84 14.8,-219.03 1.85,-62.89 6,-40.86 69.94,-100.99l352.42 -310.88c1.7,-1.34 6.61,-5.26 8.32,-6.61l101.22 -87.62c22.18,-18.9 41.59,-37.32 65.88,-57.97l319.76 -263.49c21.57,-16.71 39.17,-37.75 60.73,-55.44 37.36,-30.64 106.26,-80.92 109.8,-129.35 14.47,-198.34 -4.8,-582.61 -1.28,-823.54 1.49,-103.17 18.62,-131.16 -52.12,-120.31 -88.87,13.62 -69.55,30.02 -142.16,35.68 -47.81,3.72 -56.25,14.99 -95.03,21.59 -42.73,7.28 -65.07,0.21 -100.35,14.1l-192.21 40.57c-35.82,7.51 -70.29,7.17 -106.4,11.71 -39.7,4.98 -56.52,16.91 -93.2,22.34 -33.26,4.93 -76.18,3.61 -104.89,12.24 -38.11,11.44 -44.99,16.25 -95.3,19.77 -180.85,12.66 -123.71,26.39 -203.21,32.72 -34.23,2.73 -79.66,0.09 -111.13,6.28 -40.37,7.93 -22.27,16.25 -93.14,22.29l-165.61 9.73c-29.86,4.7 -24.74,3.31 -36.46,22.22z"/>
    <path class="fil4" d="M16165.54 3551.34c36.05,73.95 201.77,123.85 267.91,143.97 28.97,8.82 43,18.59 78.68,24.35 14.59,2.37 31.35,2.52 44.92,6.81 26.36,8.33 3.11,7.87 34.16,14.94 34.75,7.92 55.75,0.57 87.89,13.99 106.84,44.6 110.18,16.29 213.3,91.31 45.38,33.02 82.99,53.73 113.1,91.92 23.83,30.23 31.66,19.94 55.97,45.4l143.43 162.23 41.75 2.21c63.65,-93.81 146.73,-110.92 113.95,-165.3 -36.47,-60.48 -133.42,-202.17 -159.63,-263.05 -10.45,-24.27 -8.69,-57.6 -8.99,-88.6 -0.83,-88.1 -1.04,-271.86 20.81,-353.27 12.39,-46.12 19.34,-159.49 0.28,-211.76 -0.61,-1.65 -1.51,-3.47 -2.11,-5.17 -0.62,-1.75 -1.38,-3.61 -1.97,-5.42 -10.83,-33.8 -5.98,-60.77 -28.7,-86.68 -59.7,-68.13 -68.72,-25.28 -111.77,3.05l-115.68 67.29c-18.7,12.05 -37.11,24.74 -53.2,34.44 -9.93,5.98 -17.73,9.71 -28.01,15.98 -11.9,7.27 -0.34,1.05 -13.81,8.66l-102.35 57.3c-15.57,10.23 -25.36,10.89 -34.55,16.78 -13.77,8.81 -9.63,16.82 -51.4,43.28 -28.73,18.19 -33.24,17.08 -56.66,36.18 -80.33,65.5 -42.81,-0.47 -135.36,89.72l-311.96 209.44z"/>
    <path class="fil1" d="M18708.47 3605.69c-7.85,735.3 -0.97,1488.48 0.75,2226.58 0.42,178.73 -9.94,137.19 80.25,177.18 58.93,26.13 32.91,11.31 76.31,24.98l164.85 36.94 0.02 -989.7c0.03,-60.78 13.23,-85.25 -68.29,-141.61l-31.41 -26.75c-34.08,-36.47 -25.82,-33 -25.46,-137.7l-0.41 -765.17c-0.49,-85.9 15.54,-149 14.94,-262.34l-1.81 -182.19c-0.49,-54.87 6.18,-71.29 -53.73,-66.59 -55.39,74.08 -95.54,60.62 -156.01,106.37z"/>
    <path class="fil0" d="M19965.44 7274.49c-70.07,16.79 -97.15,27.15 -154.11,57.6l-94.67 72.87 -61.82 85.12c-51.55,72.91 -65.12,158.97 -62.78,258.97 2.68,114.71 78.55,197.89 149.64,273.47 48.96,52.06 110.41,54.38 153.78,80.18 93.95,55.87 255.49,14.61 342.78,-37.2 61.65,-36.59 106.57,-84.52 136.74,-154.65 63.58,-147.78 73.81,-175.15 36.03,-345.49 -14.89,-67.11 -77.82,-145.04 -128.97,-191.97 -75.03,-68.84 -217.24,-122.72 -316.62,-98.9z"/>
    <path class="fil0" d="M23716.49 7690.54c-0.02,-41.89 2.72,-63.87 -13.08,-93.94 -34.14,-64.96 13.16,-14.13 -43.54,-108.78 -4.28,-7.16 -4.32,-8.52 -6.99,-13.79 -55.27,-109.15 -230.34,-199.09 -342.89,-200.6 -66.34,-0.89 -121.07,14.5 -167.16,38.3 -22.75,11.76 -43.48,22.71 -62.45,39.99l-74.89 79.5c-17.71,25.72 -0.57,8.69 -19.43,30.3 -1.56,1.78 -10.78,11.15 -10.89,11.29 -6.42,8.62 -6.38,10.8 -10.99,20.29 -11.52,23.75 -7.93,13.05 -18.22,31.52 -6.48,11.65 -41,133.65 -42.13,172.93 -1.09,38.27 3.5,64.5 13.22,91.75 6.67,18.68 5.48,10.79 10.99,38.95 12.07,61.61 82.33,160.09 136.12,196.21l47.43 32.9c77.51,41.87 107.17,60.31 198.15,60.79 31.96,0.16 70.86,1.09 98.72,-7.33 103.36,-31.24 87.72,-43.87 100.46,-51.97 25.11,-15.96 5.44,16.06 79.41,-45.79l26.4 -26.2c4.73,-6.46 8.47,-14.58 11.1,-19.9l27.43 -42.98c40.6,-63.68 63.28,-150.83 63.23,-233.44z"/>
    <path class="fil5" d="M20459.23 1590.02c-28.54,3.84 -145.06,57.73 -178.91,76.31 -26.06,14.3 -37.7,13.8 -63.21,31.18 -66.95,45.64 -135.06,69.76 -171.33,98.34l-58.82 36.44c-37.7,19.78 -168.26,116.14 -208.02,155.36l-355.25 366.13c-16.48,22.6 -16.55,30.55 -35.15,52.73 -50.32,60.02 -85.89,129.13 -120.56,201.25 -6.29,13.08 -5.88,18.7 -12.14,32.18 -45.18,97.27 -50.65,47.46 -116.39,247.52 -9.63,29.31 -20.06,44.25 -26.62,67.26 -8.06,28.21 -5.45,41.84 -17.92,69.33 -14.72,32.42 -18.6,31.47 -18.49,75.16 43.92,7.86 144.17,23.31 176.18,9.9 1.4,-4.09 18.52,-97.55 43.56,-146.89l58.09 -130.87c9.94,-22.39 29.47,-74.08 45.05,-78.18 11.48,-54.31 33.82,-79.11 59.31,-115.43 11.98,-17.03 20.36,-34.63 30.53,-50.1l110.71 -144.54c14.55,-16.39 76.52,-79.61 80.84,-89.13 24.66,-58.12 181.81,-122.06 263.04,-209.15 50.54,-54.19 27.04,-22.37 90.77,-68.33l135.64 -97.14c1.5,-0.82 3.44,-1.74 4.94,-2.59l144.29 -80.93c58.23,-23.7 -1.22,-19.4 116.81,-50.95l85.16 -53.7c70.63,-52.92 59.74,-34.18 113.6,-60.78l13.99 -8.61c35.57,-21.47 12.39,0.84 74.13,-34.83 12.05,-6.97 19.94,-8.05 37.13,-10.74 49.71,-7.79 39.5,-12.44 80.66,-25.61l73.64 -27.81c23.66,-6.9 56.14,-2.3 76.26,-5.76 46.75,-8.05 36.54,-130.15 25.29,-173.48 -37.48,-9.85 -284.02,59.12 -344.03,82.15 -23.97,9.19 -46.1,6.01 -71.58,17.39l-141.2 46.92z"/>
    <path class="fil2" d="M21182.44 6848.65c-26.4,12.92 -18.99,18.2 -52.73,33.11 -17.58,7.77 -30.9,12.06 -43.26,32.27 -15.96,38.47 7.91,37.57 8.3,91 0.27,36.41 -0.43,73.33 -0.35,109.77 22.52,-9.37 9.33,-2.53 28.07,-14.34l102.87 -77.36c87.4,-43.6 34.52,1.06 128.98,-62.36l42.88 -21.27c1.75,-0.81 3.63,-1.76 5.31,-2.63 25.01,-12.9 12.67,-18.8 70.83,-18.8l11.36 -17.96c11.08,-13.79 67.93,-36.1 86.69,-50.86l47.66 -40.49c0,72.18 19.6,447.4 -1.13,498.35 -12.48,30.66 3.19,6.09 -20.14,27.12 -1.17,1.05 -2.67,2.42 -3.91,3.42 -1.28,1.04 -2.8,2.41 -4.18,3.39l-15.28 9.16c-35.19,15.6 -44.93,-1.81 -28.23,41.55 75.58,0 16.31,4.66 80.69,-41.91 1.19,-0.86 2.9,-2.22 4.1,-3.04 8.73,-5.91 25.39,-12.07 28.27,-12.56 50.62,-8.6 36.31,2.21 80.18,27.81 1.26,0.73 3.34,1.52 4.59,2.31 1.28,0.82 3.2,1.89 4.45,2.79 1.27,0.91 2.97,2.32 4.18,3.31l115.48 81.05c18.4,11.57 13.52,16.14 23.97,27.24l77.94 58.07c19.44,3.45 39.4,20.85 75.75,40.76 67.53,37.01 162.34,138.43 214.59,137.06 1.22,-1.77 2.11,-4.34 2.66,-5.88 0.56,-1.54 1.83,-4.06 2.44,-5.97l81.29 -307.95c8.29,-33.91 18.32,-97.14 -6.23,-126.35 -35.82,24.04 -14.75,51.94 -36.23,94.92 -29.1,58.2 4.82,40.72 -42.13,118.78 -8.66,14.4 -8.75,27.64 -15.45,-10.83 -13.32,-76.32 60.4,-206.35 64.66,-298.8l50.51 4.65c64.74,-18.09 -15.53,-31.49 117.1,-35.45 1.63,-1.85 3.59,-4.49 4.61,-5.79 0.89,-1.15 3.18,-3.82 4.14,-5.06l7.2 -10.01c0.03,0.02 8.58,10.46 35,6.91 23.07,-3.11 15,-2.62 27.54,-12.94 -11.88,-31.67 -166.32,-110.25 -184.66,-126.62l-19.29 -24.05c-9.27,-2.75 -12.89,-4.59 -20.74,-9.55 -35.4,-22.4 -169.53,-102.68 -201.75,-109.37l1.33 26.53c10.05,5.4 19.28,6.02 25.47,9.43l17.96 15.01c-19.94,31.12 1.01,-0.57 -44.47,24.86 -20.31,11.36 -10.14,13.65 -43.16,21.65 11.22,23.76 -15.82,-23.65 9.21,8.49 14.08,18.09 2.97,-16.3 6.27,10.65 4.86,39.75 -5.83,19.14 -10.89,25.36 -36.81,-4.68 -12.46,-3.36 -44.33,-24.2l-18.55 -10.57c-1.34,-0.91 -3.08,-2.18 -4.38,-3.12l-49.72 -30.48c-60.26,-39.54 -27.95,-12 -61.98,-32.64 -45.67,-27.69 -32.35,-7.14 -102.41,-50.45l-89.47 -50.46c-1.32,-0.75 -3.2,-2.08 -4.5,-2.71 -17.65,-8.57 -27.62,-18.79 -31.04,25.92l-6.54 481.25c-0.44,2.52 -0.99,4.49 -1.52,6.71 -0.51,2.19 -1.74,4.66 -2.25,6.39 -0.49,1.73 -2.41,7.16 -2.83,6.13 -0.42,-1.03 -1.8,4.19 -3.14,6.01 -22.24,-10.12 -11.88,0.07 -17.48,-24.77 -9.53,-42.29 11.83,-139.63 -8.37,-208.51 -4.88,-16.59 -4.27,-11.49 -5.37,-31.89 -10.19,-188.79 13.77,-231.44 12.91,-267l-47.27 -0.49c-38.51,40.58 -93.5,70.86 -143.66,101.52l-123.01 66.29c-16.59,9.36 -24.87,10.86 -47.16,11.77 -1.62,-61.07 -0.69,-72.85 -43.26,-101.77 -31.66,12.47 -3.24,14.36 -58.29,14.94 -6.14,-8.38 -7.91,4.12 -6.7,-26.45z"/>
    <path class="fil3" d="M24019.91 2524.66c-4.57,-21.47 -26.5,-41.23 -43.02,-62.73l-148.04 -201.93c-36.99,-60 -8.97,-24.84 -93,-104.05 -50.02,-47.16 -68.07,-73.29 -124.53,-104.2l-56.9 -49.6c-19.89,-18.57 -37.89,-31.34 -59.26,-50.15l-44 -36.39c-1.78,-1.28 -6.87,-5.12 -8.71,-6.39l-95.53 -63.18c-32.26,-22.06 -13.97,-1.84 -47.73,-33.05 -28.94,-26.76 -189.7,-124.33 -204.64,-129.22 -26.49,-2.6 -8.2,0.82 -28.42,-6.64l-128.36 -53.12c-52.26,-18.89 -19.79,-16.59 -80.54,-26.67 -28.03,-4.64 -28.43,-12.64 -51.3,-24.9l-41.34 -16.12c-2.21,-0.82 -8.56,-3.33 -10.69,-4.22l-81.71 -25.77c-45.23,-10.99 -25.84,-19.82 -84.18,-22.79 -11.65,-0.59 -10.07,0.19 -22.14,-2.22l-38.02 -14.14c-31.59,-12.3 -60.75,-7.6 -93.47,-14.9 -29.28,-6.54 -22.78,-17.14 -51.63,-20.18 -74.77,-7.87 -49.54,48.23 -49.54,153.52 31.53,16.72 26.83,19.03 66.51,32.38 8.36,2.8 32,8.15 39.93,10.54l153.49 49.89c45.8,13.1 64.06,24.52 119.31,33.01 61.08,9.38 22.84,19.3 76.89,31.57 59.92,13.6 81.84,41.35 135.48,67.82 17.56,8.67 52.65,29.65 66.98,40.69 20.43,15.73 39.49,25.07 60.39,42.67l30.23 21.15c110.51,71.06 137.27,107.59 207.42,149.38 43.22,25.74 182.91,123.69 216.12,161.91l101.08 96.92c1.05,1.01 2.56,2.59 3.59,3.59 141.92,136.92 160.31,128.44 289.05,307.91l97.37 159.14c20.13,36.06 89.07,174.72 97.22,210.65 11.64,51.26 -4.58,115.27 155.25,67.43 -7.42,-17.43 -8.82,-5.13 -17.01,-28.96l-15.89 -87.4c-0.78,-2.06 -3.41,-7.29 -4.3,-9.3l-4.66 -9.76c-0.91,-2.11 -5.57,-14.04 -6.35,-16.37l-27.8 -71.66c-7.44,-14.92 -7.74,-27.7 -13.04,-40.21l-47.22 -96.26c-10.15,-20.42 -4.76,-19.22 -13.58,-37.29 -13.75,-28.2 -45.22,-70.86 -55.14,-99.43 -12.02,-34.61 -24.11,-36.7 -24.62,-70.97z"/>
    <path class="fil1" d="M24460.24 6015.4c93.25,-1.14 73.02,9.06 131.38,-30.29l8.63 -990.89c0.24,-104.76 -7.03,-230.61 1.71,-332.43 10.63,-123.83 3.41,-511.52 3.54,-658.64 0.11,-111.01 -1.61,-224.85 0.43,-335.45 1.81,-97.25 -11.52,-54.09 -113.21,-133.13 -21.85,-16.99 -35.56,-19.33 -65.6,-17.58 -7.48,109.7 5.64,207.97 6.66,311.26 1.81,180.71 18.78,950.03 4.34,1033.21 -25.23,145.42 -14.59,58.5 -13.23,227.5 1.46,180.44 -9.16,481.3 -0.51,641.36l35.86 285.08z"/>
    <path class="fil4" d="M20459.23 1590.02l141.2 -46.92c25.48,-11.38 47.61,-8.2 71.58,-17.39 60.01,-23.03 306.55,-92 344.03,-82.15 11.25,43.33 21.46,165.43 -25.29,173.48 -20.12,3.46 -52.6,-1.14 -76.26,5.76l-73.64 27.81c-41.16,13.17 -30.95,17.82 -80.66,25.61 -17.19,2.69 -25.08,3.77 -37.13,10.74 -61.74,35.67 -38.56,13.36 -74.13,34.83l-13.99 8.61c-53.86,26.6 -42.97,7.86 -113.6,60.78l-85.16 53.7c-9.93,50.98 -0.06,-0.34 -68.74,47.7l-126.91 68.22c-1.03,0.97 -2.51,2.54 -3.52,3.55 -50.52,50.34 -33.87,13.17 -61.01,42.07 12.46,42.84 10.12,-3.93 24.33,56.13 9.07,38.35 13.22,25.97 23.18,50.04 10.36,25.04 3.27,37.3 17.38,62.93 13.07,23.73 12.25,2.23 17.33,56.69l34.8 118.5c8.9,23.48 11.85,16.5 22.93,49.38l41.98 111.36c11.72,25.19 9.86,10.11 22.16,52.42 13.91,47.84 6.82,8.84 23.88,46.94l202.75 546.11c7.5,15 15.74,35.03 17.73,59.18 2.72,33.14 -82.47,284.48 -99.99,351.59 -6.53,25.02 -17.07,29.53 -22.69,52.15 -6.58,26.44 -0.36,36.23 -13.53,60.68 -15.85,29.4 -14.49,-1.31 -18.35,52.39 -1.86,25.82 0.8,45.38 -7.27,68.92 -42.59,13.96 -187.44,-21.11 -235.3,-26.29 -39.63,-4.3 -84.39,-7.76 -123.85,-13.27 -38.67,-5.4 -44.17,-26.39 -101.56,-31.08 -1.68,-60.43 -18.83,-18.07 -47.89,-67.35 -16.31,-27.65 1.99,-9.4 -22.9,-34.97 -84.16,-86.41 -67.36,-121.98 -108.42,-161.71 -62.68,-60.65 -40.09,-75.17 -62.9,-104.88 -9.1,-11.87 -13.55,-1.51 -21.76,-26.72 -6.36,-19.5 -0.36,-30.66 -7.75,-51.51 -7.21,-20.35 -10.61,-10.32 -19.59,-31.03 -11.97,-27.6 -3.27,-69.93 -7.28,-102.1 -4.32,-34.6 -18.03,-57.52 -20.38,-95.19l-21.39 -197.3c-10.77,-117.01 0.8,-295.05 27.63,-409.13 8.03,-34.17 20.77,-49.36 27.18,-85.8 -13.87,-11.31 20.83,-16.08 -35.77,-9.53 -4.32,9.52 -66.29,72.74 -80.84,89.13l-110.71 144.54c-10.17,15.47 -18.55,33.07 -30.53,50.1 -25.49,36.32 -47.83,61.12 -59.31,115.43 23.59,-4.59 50.39,-62.12 76.41,-99.75 16.83,-24.34 -9.47,-5.02 15.48,-21.31 5.96,9.78 8.1,-9.12 5.22,21.44 -1.19,12.5 -6.21,15.32 -10.9,25.07 -14.19,29.48 -9.68,19.58 0.72,53.78 56.86,186.98 4.21,350 41.35,577.73l47 164.69c25.32,49.55 -4.43,60.56 24.61,121.62 8,16.83 14.45,30.31 19.4,45.5 10.03,30.85 11.04,34.6 74.04,63.75 16.45,7.61 39.31,8.79 60.9,10.76 55.56,5.09 69.67,21.44 110.73,27.18 40.6,5.68 89.82,6.54 129.96,10.32 52.75,4.99 63.86,24.03 108.98,26.3 124.6,6.23 59.22,9.72 116.44,22.44 34,7.57 89.52,5.49 131.74,9.04 27.63,2.33 38.7,5.8 62.16,11.24 94.18,21.82 59.81,-43.14 101.43,-158.32l46.8 -150.03c12.02,-33.46 1.67,-33.89 23.64,-70.99 24.18,-40.84 4.93,-43.84 23.37,-78.86 19.74,-37.49 6.56,7.01 15.35,-26.88 3.58,-13.78 1.02,-33.67 4.62,-48.38 15.28,-62.46 26.96,18.97 27.41,-73.39 -7.25,-48.08 -4,8.67 -20.2,-37.91 -17.09,-49.12 11.77,-24.23 -24.88,-83.52 -0.85,-1.37 -2.18,-3.02 -2.96,-4.48 -8.84,-16.54 -6.6,-29.45 -13.37,-45.46 -8.52,-20.14 -11.42,-5.17 -21.17,-35.86 -5.85,-18.43 -3.26,-35.22 -8,-52.44 -10.65,-38.69 -8.36,-6.09 -20.84,-36.08 -8.99,-21.59 -2.76,-35.65 -12.11,-54.42 -7.3,-14.64 -9.03,6.33 -20.32,-37.85 -5.04,-19.74 -4.06,-32.51 -9.89,-48.36 -11.11,-30.22 -10.75,-8.45 -19.67,-38.61 -6.37,-21.48 -1.12,-28.7 -11.35,-46.3l-12.75 -16.07c-14.6,-26.85 -2.66,-26.21 -10.68,-48.73 -12.85,-36.05 -18.22,2.62 -29.99,-57.02 -2.15,-10.89 -1.14,-13.73 -5.58,-23.26 -0.68,-1.45 -1.82,-3.21 -2.62,-4.56 -0.77,-1.32 -2.23,-2.88 -3.09,-4.12l-48.76 -88.54c-27.01,-59.93 -51.22,-105.54 -60.97,-174.06 -8.16,-57.34 -11.2,-58.01 14.98,-99.63 11.79,-18.73 11.2,-18.82 15.25,-42.56 7.74,-45.44 37.9,-106.19 70.97,-141.21l40.9 -46.21c14.77,-16.67 50.92,-52.93 72.36,-53 33.15,13.46 -20.1,-17.98 8.85,6.77 20.07,17.16 14.09,17.19 33.29,22.23 1.36,-60.59 -10.75,-63.53 -16.19,-111.11 27.19,-12.28 18.4,-13.56 35.96,-23.58 18.66,-10.65 26.32,-7.06 43.46,-14.87 27.68,-12.61 4.19,-24.75 91.38,-28.96 21.23,-52.8 4,-6.89 60.12,-37.51 93.24,-50.87 123.16,-60.6 250.3,-70.14 30.06,-53.75 34,-185.68 19.65,-203.21 -23.41,-28.58 -54.55,-9.84 -89.99,-4.06 -114.13,18.6 -38.11,6.38 -104.87,25.82 -39.05,11.38 -59.46,2.43 -99.3,23.67 -50.87,27.11 -143.33,35.92 -193.96,61.8 -47.98,24.53 -73.95,-7.16 -90.89,47.31z"/>
    <path class="fil4" d="M21602.84 7377.22c-46.29,9.03 -101.43,50.17 -132.43,69.49l-248.62 166.69c-41.95,38.85 -34.37,31.49 -54.51,30.61 -13.01,-32.71 -3.08,-114.16 -25.46,-172.97l-36.58 -111.51c-23.71,-41.05 -9.83,-20.66 -18.01,-76.48 -6.59,-45.08 -23.63,-41.3 -27.22,-80.48 -7.55,-82.64 25.68,-113.38 18.85,-204.64 -3.06,-41.02 -31.34,-74.56 7.59,-83.9 12.36,-20.21 25.68,-24.5 43.26,-32.27 33.74,-14.91 26.33,-20.19 52.73,-33.11 39.36,3.55 29.86,-11.91 60.9,-29.71 20.74,-11.89 11.68,-2.85 32.96,-17.88l179.34 -104.9c13.39,-7.32 14.79,-7.43 28.23,-15.44l120.61 -68.3c15.9,-10.58 51.69,-25.21 65.62,-31.15l96 59.26c1.23,0.91 2.91,2.28 4.09,3.21l23.92 17.83c19.13,9.42 16.94,4.14 36.09,15.91 30.49,18.72 67.05,43.07 104.26,50.14 -17.14,-39.34 -24.67,-28.01 -78.14,-60.85 -31.21,-19.17 -63.09,-32.82 -90.97,-49.52 -9.86,-5.9 -71.87,-48.46 -77.65,-50.4 -42.65,-14.29 -64.28,14.76 -72.22,20.16l-541.81 310.94c-34.1,20.33 -13.66,13.68 -33.88,30.8l-375.24 208.67c-25.89,13.92 -23.25,3.26 -47.77,24.37 -86.97,74.84 -32.05,38.65 40.94,208.25 41.17,95.66 11.87,23.53 37.31,110.14 24.74,84.2 47.23,133.99 44.9,239.51 -3.4,153.65 3.68,80.73 24.77,140.85 5.92,16.85 5.22,27.21 11.83,45.59 30.02,2.09 31.98,-10.6 50.86,-23.24l751.1 -481.48c32.23,-21.63 12.28,7.54 24.35,-24.19z"/>
    <path class="fil6" d="M21318.08 4731.89c-42.22,-32.95 -71.69,-8.21 -113.79,-24.29 -19.1,-7.3 -5.51,-3.8 -17.86,-9.48 -11.91,-5.46 -17.16,-6.89 -27.86,-8.67l-172.44 -31.97c-46.44,-6.89 -58.42,-23.37 -106.27,-30 -46.28,-6.42 -200.62,-20.54 -235.75,-36.33 -20.54,-9.23 -14.93,-16.08 -40.58,-21.63 -16.94,-3.67 -44.08,-1.64 -63.01,-3.3 -51.76,-4.53 -59.15,-24.35 -108.89,-26.83 -52.87,-2.64 -138.64,-2.52 -180.9,-20.15 -21.33,-8.9 -30.39,-11.44 -55.31,-14.69 -61.54,-8 -176.18,-23.39 -231.12,-40.17 -42.28,-12.91 -42.89,-17.51 -102.37,-26.25 -33.25,-4.89 -82.12,-43.57 -101.37,-12.79 -23.25,37.18 33.73,56.17 41.3,59.78 56.52,26.95 107.5,69.56 164.39,88.67l201.06 108.54c74.24,39.54 127.43,91.54 210.33,125.97 29.82,12.38 18.97,11.48 43.41,28.28 12.79,8.79 28.4,20.46 38.43,26.38 14.7,8.68 29.7,11.35 45.84,20.34 8.02,4.46 31.8,18.05 41.39,24.72 22.64,15.74 14.82,14.65 42.27,28.92 66.36,34.46 69.63,25.68 92.77,40.38 90.28,57.35 99.09,45.37 230.5,-26.11l390.87 -206.72c17.91,-11.65 2.78,0.74 14.96,-12.6z"/>
    <path class="fil2" d="M18330.81 4352.95c-3.85,79.5 -12.13,750.22 1.83,868.5 30.05,254.82 -72.1,158.92 132.2,325.41 22.3,18.17 25.53,35.15 57.23,38.1 1.14,-178.4 -3.51,-207.26 13.99,-380.28l10.09 -334.34c0.08,-288.1 8.02,-573.71 6.44,-867.19 -0.28,-52.7 12.78,-205.47 -59.41,-145.9l-112.89 106.17c-58,53.17 -44.93,1.32 -48.37,170.91 -1.47,72.72 -0.77,145.82 -1.11,218.62z"/>
    <path class="fil7" d="M21247.43 2217.03c41.64,-79.93 -13.77,-523.67 21.95,-663.56 129.77,-15.97 285.58,-19.59 415.29,-16.72 73.15,1.62 395.45,-0.27 415.35,41.3 24.1,50.32 22.14,569.64 21.93,570.04 0.25,-308.89 23.34,-631.45 7.29,-936.02 -20.35,-10.76 -871.15,-13.2 -897.8,-6.05 -8.14,70.68 2.53,408.23 1.95,508.91 -0.55,94.95 -19.13,445.85 14.04,502.1z"/>
    <path class="fil6" d="M22018.58 4724.6c-0.72,40.83 10.89,28.35 80.41,67.15 99.06,55.29 289.8,158.28 390.88,200.11 61,25.24 44.92,43.48 108.32,6.22 25.21,-14.83 73.96,-28.57 103.75,-43.24 16.93,-8.34 21.85,-18.54 43.45,-27.98l145.63 -80.73c35.71,-18.61 53.28,-23.57 93.65,-53.04 56.79,-41.46 126.34,-71.54 188.7,-110.27 32.72,-20.31 52.08,-34.76 90.59,-54.59l187.51 -111.34c10.12,-6.33 14.03,-7.3 23.42,-13.15l42.05 -29.17c26.2,-13.66 19.48,-6.81 28.18,-22.18 -49.19,-22.47 -138.59,13.45 -192.23,21.43 -66.91,9.97 -124.72,21.6 -193.67,33.54 -171.72,29.74 -320.18,70.53 -470.44,90.86l-562.66 114.7c-33.94,5.13 -80.5,-1.82 -107.54,11.68z"/>
    <path class="fil4" d="M17232.8 4344.05l216.41 331.57c11.68,15.32 7.1,9.46 19.28,23.67l107.18 156.89c0.87,1.39 1.93,3.26 2.76,4.64 15.18,25.13 -2.3,-2.12 7.77,13.75l175.32 253.23c7.45,9.66 9.01,15.13 17.15,25.11 59.72,4.71 70.39,-22.49 99.99,-51.19 38.54,-37.38 76.72,-48.75 98.46,-63.13l13.7 -9.15c21.13,-11.96 15.04,-2.82 28.54,-18.6 84.9,-99.24 77.52,-46.53 76.95,-147.69 -0.41,-71.98 14.14,-83.32 -25.09,-125.36l-321.2 -421.33c-0.98,-1.22 -2.32,-2.92 -3.28,-4.18 -5.44,-7.22 -3.34,-5.17 -8.99,-13.53l-137.25 -189.87c-62.31,-73.73 -132,-186.41 -188.15,-249.26l-74.49 -83.55c-1.27,-1.35 -3.15,-3.61 -4.83,-5.31 7.18,34.28 4.05,27.72 24.1,49.35l84.48 104.39c75.4,88.22 136.58,201.85 176.41,246.5 8.27,9.25 5.76,4.93 14.29,14.69l100.03 147.85c9.39,21.41 11.1,21.43 24.97,33.98l-15.92 4.7c-29.89,5.87 -12.1,-9.98 -27.34,10.88 -26.78,36.66 -50.18,76.35 -100.6,111.58 -21.98,15.34 -57.98,49.46 -59.45,77.25 -3,56.7 24.45,-4.32 22.81,118.87 -32.13,-7 -12.89,-5.59 -36.24,-14.73l-14.06 37.7c-0.43,-1.11 -1.63,4 -2.9,5.72 -36.59,-10.19 -6.16,2.1 -25.2,-20.97l-50.72 -65.5c-7.21,-10.78 -9.6,-17.89 -16.41,-27.52l-152.1 -226.38c-15.93,-17.77 12.81,17.5 -7.59,-6.72 -8.5,-10.1 -5.58,17.56 -12.16,-26.31l-26.63 -2.04z"/>
    <path class="fil2" d="M21086.45 6914.03c-38.93,9.34 -10.65,42.88 -7.59,83.9 6.83,91.26 -26.4,122 -18.85,204.64 3.59,39.18 20.63,35.4 27.22,80.48 8.18,55.82 -5.7,35.43 18.01,76.48l36.58 111.51c22.38,58.81 12.45,140.26 25.46,172.97 20.14,0.88 12.56,8.24 54.51,-30.61l248.62 -166.69c31,-19.32 86.14,-60.46 132.43,-69.49 50.51,-30.45 36.22,-73.54 181.58,38.63 31.25,24.12 153.7,117.14 185.61,120.94l-77.94 -58.07c-10.45,-11.1 -5.57,-15.67 -23.97,-27.24l-115.48 -81.05c-1.21,-0.99 -2.91,-2.4 -4.18,-3.31 -1.25,-0.9 -3.17,-1.97 -4.45,-2.79 -1.25,-0.79 -3.33,-1.58 -4.59,-2.31 -43.87,-25.6 -29.56,-36.41 -80.18,-27.81 -2.88,0.49 -19.54,6.65 -28.27,12.56 -1.2,0.82 -2.91,2.18 -4.1,3.04 -64.38,46.57 -5.11,41.91 -80.69,41.91 -16.7,-43.36 -6.96,-25.95 28.23,-41.55l15.28 -9.16c1.38,-0.98 2.9,-2.35 4.18,-3.39 1.24,-1 2.74,-2.37 3.91,-3.42 23.33,-21.03 7.66,3.54 20.14,-27.12 20.73,-50.95 1.13,-426.17 1.13,-498.35l-47.66 40.49c-18.76,14.76 -75.61,37.07 -86.69,50.86l-11.36 17.96c-58.16,0 -45.82,5.9 -70.83,18.8 -1.68,0.87 -3.56,1.82 -5.31,2.63l-42.88 21.27c-94.46,63.42 -41.58,18.76 -128.98,62.36l-102.87 77.36c-18.74,11.81 -5.55,4.97 -28.07,14.34 -0.08,-36.44 0.62,-73.36 0.35,-109.77 -0.39,-53.43 -24.26,-52.53 -8.3,-91z"/>
    <path class="fil4" d="M21970.03 7536.79c0.69,1.68 1.91,2.42 2.33,4.92 3.34,20.21 65.76,53.1 89.97,69.26l8.75 6.42c115.03,90.05 173.69,110.76 286.74,186.46l71.43 44.83c1.35,0.83 3.22,1.88 4.57,2.73 48.69,30.32 51.46,20.49 81.61,54.87l41.15 1.33c22.15,-49.08 11.13,-131.84 22.39,-194.72l24.53 -144.3c5.44,-17.24 11.2,-17.95 16.32,-40.44 9.22,-40.57 2.28,-57.14 23.54,-88.64 21.1,-31.24 12.05,-46.14 33.41,-83.93 8.07,-14.28 10.08,-23.44 16.35,-35.14 8.6,-16.02 61.27,-72.08 69.39,-103.57 -9.84,-12.48 -28.72,-26.44 -44.19,-35.21l-204.51 -125.39c-39.88,-16.45 -121.53,-83.64 -160.28,-92.1l19.29 24.05c18.34,16.37 172.78,94.95 184.66,126.62 -12.54,10.32 -4.47,9.83 -27.54,12.94 -26.42,3.55 -34.97,-6.89 -35,-6.91l-7.2 10.01c-0.96,1.24 -3.25,3.91 -4.14,5.06 -1.02,1.3 -2.98,3.94 -4.61,5.79 -132.63,3.96 -52.36,17.36 -117.1,35.45l-50.51 -4.65c-4.26,92.45 -77.98,222.48 -64.66,298.8 6.7,38.47 6.79,25.23 15.45,10.83 46.95,-78.06 13.03,-60.58 42.13,-118.78 21.48,-42.98 0.41,-70.88 36.23,-94.92 24.55,29.21 14.52,92.44 6.23,126.35l-81.29 307.95c-0.61,1.91 -1.88,4.43 -2.44,5.97 -0.55,1.54 -1.44,4.11 -2.66,5.88 -52.25,1.37 -147.06,-100.05 -214.59,-137.06 -36.35,-19.91 -56.31,-37.31 -75.75,-40.76z"/>
    <path class="fil3" d="M24777.41 4265.5c0.42,133.77 1.37,267.11 1.38,400.91l15.73 395.64c25.34,-29.63 7.05,-41.48 32.87,-87.79l33.68 35.34c15.19,15.91 59.61,69.59 63.33,88.01 8.72,43.07 2.1,28.11 22.14,59.8 47.16,-34.58 35.15,-53 34.84,-155.9 -0.2,-112.54 9.39,-205.46 9.01,-313.34l-0.14 -612.14c-0.05,-64.35 8.78,-61.54 -78.45,-144.7 -47.34,-45.14 -19.85,-4.62 -54.71,-53.35 -26.1,-36.49 -80.02,-83.29 -79.72,0.43l0.04 387.09z"/>
    <path class="fil8" d="M23147.1 3780.75c96.97,17.2 286.07,-51.72 425.21,-64.72 16.88,-1.58 37.57,-1.29 52.92,-6.32 13.85,-4.54 9.52,-9.59 37.9,-17.36 35.12,-9.63 67.13,-6.17 103.06,-20.26 74.04,-29.01 105.34,-10.21 168.15,-42.73 62.19,-32.21 24.4,-139.08 72.76,-263.1 25.22,-64.66 6.58,-81.18 54.9,-170 51.11,-93.94 0.85,-40.88 146.55,-63.95 18.12,-2.87 59.86,-7.09 64.88,-29.31 7.68,-33.9 -5.13,-22.28 -7.09,-24.74 -5.96,44.83 -25.53,32.43 -74.78,35.75 -140.2,9.44 -85.23,10.11 -115.96,-80.45 -7.25,-21.35 -15.16,-34.59 -24.82,-62.75 -10.95,-31.91 -17.55,-34.87 -29.34,-66.16l-146.95 -253.04c-21.38,-26.49 2.08,-10.5 -25.48,-21.46 -12.76,16.11 -5.04,-2.84 -10.64,24.85 -7.51,37.17 12.24,218.65 -9.82,308.67 -18.62,75.98 -14.3,150.12 -18.54,215.97l-44.14 187.42c-16.77,38.6 -28.52,192.5 -87.77,253.64 -37.4,38.59 -9.49,40.57 -57.39,57.17l-33.63 9.64c-1.88,0.6 -3.8,1.26 -5.64,1.87l-45.74 11.54c-165.97,17.06 -101.04,19.75 -194.73,40.45 -18.55,4.1 -34.13,2.6 -52.61,5.85 -29.8,5.25 -17.2,7.99 -41.9,15.29 -34.65,10.25 -73.92,-3.7 -99.36,18.24z"/>
    <path class="fil2" d="M22752.64 6790.05c31.9,5.77 31.84,-7.89 57.09,-27.91 1.19,-0.94 2.97,-2.21 4.19,-3.15 1.24,-0.95 3,-2.24 4.27,-3.19l12.86 -9.44c12.37,-9.17 11.38,-4.18 24.15,-21.37 21.48,-28.9 2.08,-18.77 34.7,-43.29 37.76,-28.37 153.87,-131.49 170.27,-165.91l15.32 -22.21c11.46,-13.39 12.96,-301.89 -4.35,-358.6l-4.13 -9.86c-19.68,-44.7 -14.46,-21.18 -16.12,-92.57 -5.38,47.23 12.91,-15.56 -8.01,28.31 -0.59,1.24 -1.84,3.72 -3.13,5.34l-9.88 -70.03 -40.75 -0.86c-14.77,30.51 -9.64,22.65 -39.61,45.7l-160.33 123.3c-10.75,8.95 -15.27,11.65 -24.52,19.34l-147.21 107.9 -42.72 -8.17c-7.87,15.6 -13.92,25.71 -25.32,41.92l-28.59 32.22c-6.45,-71.41 22.77,-442.36 23.72,-558.15 -14.34,9.1 -18.13,-8.41 -17.13,76.67 0.34,29.01 0.21,56.71 -4.17,81.4l-18.53 326.64c-1.17,67.66 8.37,108.9 9.82,169.37 30.28,-6.54 -13.97,9.26 21.32,-11.57 20.69,-12.24 4.61,-25.36 49.94,19.49 20.38,20.16 -1.44,2.87 25.66,18.82 10.78,6.36 2.55,-1.05 13.77,7.76 16.22,12.75 5.26,6.7 18.19,24.72l33.17 26.35c60.13,32.89 83.03,11.65 203.53,10.01 81.89,-1.12 90.9,-30.78 142.56,-28.61 -11.28,23.54 -20.95,27.71 -38.41,42.88l-221.03 210.32c-9.16,12.4 -0.9,-1.49 -10.59,16.43z"/>
    <path class="fil8" d="M24317.48 7020.06c45.61,-20.92 63.85,-55.37 102.05,-84.32l26.64 -16.87c-3.32,36.39 -12.89,36.78 -20.8,75.92 -1.76,8.68 -3.16,25.82 -5.81,38.61 -6.4,30.9 -0.52,5.75 -14.9,33.6l-13.62 30.3c-0.71,1.37 -1.79,3.16 -2.54,4.51l-111.74 186.17c-66.05,82.3 -26.38,29.05 -62.99,59.64 -14.98,12.5 -32.72,43.88 -42.96,60.94l-51.93 86.94c-13.47,22.98 -5.42,8.91 -20.67,28.93 -16.86,22.11 -21.41,34.86 -38.55,56.5l-74.95 84.93c-1.44,1.55 -5.71,5.92 -7.15,7.51l-48.96 59.3c-14.47,28.38 -50.96,113.89 -48.06,145.36 58.32,-6.74 101.66,-58.33 140.53,-95.93l112.4 -97.11c1.29,-0.94 3.07,-2.2 4.38,-3.16 1.3,-0.97 3.01,-2.3 4.31,-3.29 2.21,-1.69 9.23,-7.47 12.46,-10.01 15.5,-12.16 17.79,-13.33 32.12,-26.56l355.51 -314.45c79.83,-73.32 75.55,-324.96 57.13,-418.62 -12.34,-62.8 -41,-129.27 -55.71,-191.26l-25.37 -10.86c15.81,49.8 26.8,30.84 24.35,101.99 -1.54,1.15 -3.78,2.38 -4.89,3.03l-67.8 49.54c-1.15,1.03 -2.86,2.37 -4.01,3.37l-26.77 23.8c-1.19,1.04 -2.87,2.43 -4.07,3.45 -1.21,1.02 -2.97,2.31 -4.19,3.32l-39.48 40.47c-28.36,28.07 -62.68,43.61 -73.96,84.31z"/>
    <path class="fil7" d="M21182.44 6848.65c-1.21,30.57 0.56,18.07 6.7,26.45 55.05,-0.58 26.63,-2.47 58.29,-14.94 42.57,28.92 41.64,40.7 43.26,101.77 22.29,-0.91 30.57,-2.41 47.16,-11.77l123.01 -66.29c50.16,-30.66 105.15,-60.94 143.66,-101.52l47.27 0.49c0.86,35.56 -23.1,78.21 -12.91,267 1.1,20.4 0.49,15.3 5.37,31.89 20.2,68.88 -1.16,166.22 8.37,208.51 5.6,24.84 -4.76,14.65 17.48,24.77 1.34,-1.82 2.72,-7.04 3.14,-6.01 0.42,1.03 2.34,-4.4 2.83,-6.13 0.51,-1.73 1.74,-4.2 2.25,-6.39 0.53,-2.22 1.08,-4.19 1.52,-6.71l6.54 -481.25c3.42,-44.71 13.39,-34.49 31.04,-25.92 1.3,0.63 3.18,1.96 4.5,2.71l89.47 50.46c70.06,43.31 56.74,22.76 102.41,50.45 34.03,20.64 1.72,-6.9 61.98,32.64l49.72 30.48c1.3,0.94 3.04,2.21 4.38,3.12l18.55 10.57c31.87,20.84 7.52,19.52 44.33,24.2 5.06,-6.22 15.75,14.39 10.89,-25.36 -3.3,-26.95 7.81,7.44 -6.27,-10.65 -25.03,-32.14 2.01,15.27 -9.21,-8.49 33.02,-8 22.85,-10.29 43.16,-21.65 45.48,-25.43 24.53,6.26 44.47,-24.86l-17.96 -15.01c-6.19,-3.41 -15.42,-4.03 -25.47,-9.43l-1.33 -26.53 -196.58 -117.63c-37.21,-7.07 -73.77,-31.42 -104.26,-50.14 -19.15,-11.77 -16.96,-6.49 -36.09,-15.91l-23.92 -17.83c-1.18,-0.93 -2.86,-2.3 -4.09,-3.21l-96 -59.26c-13.93,5.94 -49.72,20.57 -65.62,31.15l-120.61 68.3c-13.44,8.01 -14.84,8.12 -28.23,15.44l-179.34 104.9c-21.28,15.03 -12.22,5.99 -32.96,17.88 -31.04,17.8 -21.54,33.26 -60.9,29.71z"/>
    <path class="fil0" d="M20110.58 7952.85c16.67,-43.3 -4.99,-11.5 32.82,-39.18l38.03 -44.05c0.93,-1.19 2.17,-2.93 3.1,-4.1 18.45,-23.19 8.14,0.37 26.27,-41.55 17.49,-40.47 2.11,4.73 23,-33.79 16.4,-30.23 8.48,-140.77 -0.46,-161.74 -0.65,-1.52 -1.57,-3.44 -2.32,-4.86 -0.72,-1.37 -1.86,-3.15 -2.67,-4.42l-6.3 -7.81c-0.92,-1.13 -2.56,-2.54 -3.5,-3.66l-33.33 -38.48c-44.09,-38.19 -45.91,-62.4 -101.15,-75.38l-112.51 -7.97c-29.26,0.81 -86.15,31.53 -107.37,52.94 -72.83,73.47 -89.11,213.22 -40.48,305.1 1.02,1.94 7.47,16.84 8.83,19.88 9.62,21.56 10.79,26.13 31.96,39.88 1.29,0.84 3.15,1.93 4.52,2.74l25.01 13.39c103.58,58.18 133.97,33.06 216.55,33.06z"/>
    <path class="fil0" d="M23105.67 7617.66c0,26.74 0.18,53.49 -0.22,80.21 -0.14,9.01 -0.71,37.47 0.74,44.73 5.95,29.63 9.05,11.39 18.19,34.03l4.19 23.91c1.24,7.24 2.99,17.38 3.86,19.71 10.72,28.97 1.74,2.96 18.81,26.3l8.33 13.3c15.01,18.29 -11.91,11.79 26.26,12.87 2.47,35 10.75,56.71 75.06,64.88 38.97,4.95 106.1,5.97 135.35,-4.01l42.32 -24.61c22.64,-11.8 27.67,-10.11 46.62,-28.54 1.12,-1.09 2.43,-2.77 3.5,-3.87 52.14,-52.91 15.16,-34.3 55.91,-61.18l-5.4 -154.43c-0.88,-0.95 -2.26,-2.65 -3.12,-3.67 -28.35,-33.63 -12.9,-32.51 -34.88,-60.38l-19.67 -23.15c-1.02,-1.12 -2.32,-2.89 -3.39,-3.95 -1.07,-1.05 -2.61,-2.59 -3.73,-3.57l-120.76 -70.89c-29.65,-7.96 -128.45,8.71 -156.63,25.79 -12.83,7.78 3.17,-0.87 -13.62,8.52 -5.48,3.07 -14.2,7.04 -14.81,7.36l-41.23 43.26c-0.88,1.16 -2.29,2.81 -3.12,3.99 -0.82,1.18 -2.06,2.95 -2.82,4.15l-6.81 13.44c-6.37,12.17 -3.42,9.76 -8.93,15.8z"/>
    <path class="fil4" d="M21167.31 5351.27c63.18,23.72 76.9,-10.53 115.46,-27.54 18.4,-8.12 31.38,-14.17 50.78,-22.18 13.54,-5.59 13.23,-4.87 25.84,-11.17 12.35,-6.18 21.5,-12.68 27.53,-15.75l103.94 -39.48c34.87,-8.65 28.77,-5.57 57.73,-18.53 91.65,-40.99 66.32,53.22 67.98,185.73l15.81 407.63c1.96,19.24 17.37,142.58 29.1,161.17 10.61,16.81 -4.33,7.2 16.29,15.18 20.17,-60.28 4.91,-751.99 21.47,-771.57 17.25,-9.01 27.95,-14.38 54.03,-4.78 22.97,8.44 8.72,12.53 42.09,24.27 40.09,14.1 14.6,1.51 45.66,19.56l222.66 91.92c13.07,2.87 26.7,1.83 40.08,1.92 -0.27,-45.46 -2.52,-47.23 -65.05,-81.52l-87.93 -57.36c-71.66,-48.9 -148.42,-79.04 -239.44,-138.59 -19.79,-12.93 -31.81,-31.89 -66.91,-20.78 -10.32,3.26 -87.8,52.32 -112.21,77.79 -11.52,12.01 -2.52,9.21 -22.62,15.69l-11.35 2.5c-2.09,0.53 -4.09,0.66 -6.24,1.23l-24.05 8.52c-24.34,14.18 -7.47,9.92 -23.42,19.3l-81.75 43.91c-1.24,0.96 -2.72,2.52 -3.91,3.47 -1.16,0.93 -2.64,2.46 -3.78,3.37l-154.26 91.57c-39.24,29.87 -17.73,-7.52 -33.53,34.52z"/>
    <path class="fil3" d="M24696.14 6480.87l14.52 -0.25c15.67,6.8 44.8,65.18 55.44,81.63 29.35,45.36 27.42,65.57 44.84,63.75 28.97,-14.49 -0.13,-19.04 30.69,-42.03 10.02,-7.46 19.58,-8.06 25.43,-11.26l66.3 -50.99c33.59,-16.53 6.3,9.61 57.23,21.79 4.15,-70.95 -23.47,-46.33 -37.09,-110.12 -16.07,-37.56 -146.37,-224.48 -183.59,-268.59 -29.19,-34.59 -49.49,-15.88 -82.49,-4.9 -47.35,15.73 -137.92,30.58 -180.98,53.09 -46.5,24.3 -53.39,-3.25 -81.58,34.66 14.97,24.8 14.97,11.69 72.06,52.08 43.89,31.04 178.35,131.99 199.22,181.14z"/>
    <path class="fil7" d="M18449.01 6291.41c-20.03,66.34 -96.8,135.4 -96.77,196.72l11.91 6.05c7.17,3.06 12.22,4.48 16.87,6.56l61.06 46.07c53.43,41.64 25.92,17.99 51.98,55.85 1.29,1.87 5.24,7.35 6.74,9.05 13.64,15.44 -6.64,0.15 13.88,12.12 30.06,-28.99 24.97,-40.16 41.81,-73.39l11.58 -15.95c0.89,-1.15 2.43,-2.67 3.33,-3.83l6.14 -8.48c18.22,-26.25 -0.3,-18.14 34.38,-33.25 2.08,-3.86 49.51,-56.5 54.34,-61.12l61.11 -68.79c29.67,-30.18 134.29,-87.39 145.12,-111.37 -40.07,-45.46 -175.03,-69.35 -241.13,-94.63 -114.89,-43.94 -116.97,80.37 -182.35,138.39z"/>
    <path class="fil9" d="M18350.17 4178.05c0.44,98.51 -9.96,370.71 5.71,413.9l56.74 -42.57c0.93,-1.17 2.34,-2.78 3.3,-3.91l51.81 -56.93c70.86,-56.29 59.01,36.05 59.29,-274.06l-0.71 -344.93c-44.99,5.65 -14.61,-0.93 -40.63,24.58l-92.91 81.74c-26.17,23.4 -41.85,28.73 -42.61,77.82 -0.62,40.47 -0.19,83.66 0.01,124.36z"/>
    <path class="fil2" d="M18611.92 6488.93c-34.68,15.11 -16.16,7 -34.38,33.25l-6.14 8.48c-0.9,1.16 -2.44,2.68 -3.33,3.83l-11.58 15.95c-16.84,33.23 -11.75,44.4 -41.81,73.39 -20.52,-11.97 -0.24,3.32 -13.88,-12.12 -1.5,-1.7 -5.45,-7.18 -6.74,-9.05 -26.06,-37.86 1.45,-14.21 -51.98,-55.85l-61.06 -46.07c-4.65,-2.08 -9.7,-3.5 -16.87,-6.56l-11.91 -6.05c-0.03,-61.32 76.74,-130.38 96.77,-196.72l-94.65 123.56 -107.86 219.38c-19.32,41.76 -29.21,39.2 -1.19,79.96 3.25,4.74 7.19,11.5 8.77,13.98 6.7,10.48 8.16,11.75 14.43,21.26 36.76,55.67 39.91,78.96 79.21,138.93l57.46 88.32c18.36,26.73 8.92,19.55 50.53,21.41 12.89,-178.95 -5.03,-110.81 39.66,-290.73 8.67,-34.89 106.93,-184.52 116.55,-218.55z"/>
    <path class="fil2" d="M24696.14 6480.87c23.35,40.18 39.53,61.95 65.33,107.16l55.53 120.75c8.42,26.87 16.27,29.69 23.48,62.15l28.26 146.88c0.77,34.92 -3.97,53.55 7.29,80.93 33.6,-2.27 31.7,-13.41 72.46,-73.78 21.82,-32.33 39.63,-56.97 60.3,-85.52 13.98,-19.32 13.73,-29.17 25.23,-47.96 27.36,-44.68 69.09,-98.97 54.95,-157.61 -3.47,-14.36 -8.48,2.43 -31.68,-42.29 -13.45,-25.94 -70.22,-123.57 -93.9,-148.84l-9.89 -9.35c13.62,63.79 41.24,39.17 37.09,110.12 -50.93,-12.18 -23.64,-38.32 -57.23,-21.79l-66.3 50.99c-5.85,3.2 -15.41,3.8 -25.43,11.26 -30.82,22.99 -1.72,27.54 -30.69,42.03 -17.42,1.82 -15.49,-18.39 -44.84,-63.75 -10.64,-16.45 -39.77,-74.83 -55.44,-81.63l-14.52 0.25z"/>
   </g>
  </g>
 </g>
</svg>
